<mxfile host="app.diagrams.net" modified="2020-11-13T03:09:24.822Z" agent="5.0 (Windows NT 10.0; Win64; x64) AppleWebKit/537.36 (KHTML, like Gecko) Chrome/86.0.4240.193 Safari/537.36" etag="L_k9Xl3Np_0cuAnryqhX" version="13.9.2" type="github">
  <diagram id="UriEQa8C2BqxbSiIbaLs" name="Page-1">
    <mxGraphModel dx="1014" dy="529" grid="1" gridSize="10" guides="1" tooltips="1" connect="1" arrows="1" fold="1" page="1" pageScale="1" pageWidth="827" pageHeight="1169" math="0" shadow="0">
      <root>
        <mxCell id="0" />
        <mxCell id="1" parent="0" />
        <mxCell id="7X8SiKdpSlec0oVsGJHV-5" value="AplicacionCliente" style="swimlane;fontStyle=1;align=center;verticalAlign=top;childLayout=stackLayout;horizontal=1;startSize=26;horizontalStack=0;resizeParent=1;resizeParentMax=0;resizeLast=0;collapsible=1;marginBottom=0;" vertex="1" parent="1">
          <mxGeometry x="1370" y="693" width="260" height="450" as="geometry" />
        </mxCell>
        <mxCell id="7X8SiKdpSlec0oVsGJHV-11" value="# valorDeHora : int" style="text;strokeColor=none;fillColor=none;align=left;verticalAlign=top;spacingLeft=4;spacingRight=4;overflow=hidden;rotatable=0;points=[[0,0.5],[1,0.5]];portConstraint=eastwest;" vertex="1" parent="7X8SiKdpSlec0oVsGJHV-5">
          <mxGeometry y="26" width="260" height="26" as="geometry" />
        </mxCell>
        <mxCell id="7X8SiKdpSlec0oVsGJHV-10" value="# consejosActivados: boolean" style="text;strokeColor=none;fillColor=none;align=left;verticalAlign=top;spacingLeft=4;spacingRight=4;overflow=hidden;rotatable=0;points=[[0,0.5],[1,0.5]];portConstraint=eastwest;" vertex="1" parent="7X8SiKdpSlec0oVsGJHV-5">
          <mxGeometry y="52" width="260" height="26" as="geometry" />
        </mxCell>
        <mxCell id="7X8SiKdpSlec0oVsGJHV-7" value="" style="line;strokeWidth=1;fillColor=none;align=left;verticalAlign=middle;spacingTop=-1;spacingLeft=3;spacingRight=3;rotatable=0;labelPosition=right;points=[];portConstraint=eastwest;" vertex="1" parent="7X8SiKdpSlec0oVsGJHV-5">
          <mxGeometry y="78" width="260" height="8" as="geometry" />
        </mxCell>
        <mxCell id="7X8SiKdpSlec0oVsGJHV-31" value="+ AplicacionCliente(Celular, MovementSensor)" style="text;strokeColor=none;fillColor=none;align=left;verticalAlign=top;spacingLeft=4;spacingRight=4;overflow=hidden;rotatable=0;points=[[0,0.5],[1,0.5]];portConstraint=eastwest;fontStyle=4" vertex="1" parent="7X8SiKdpSlec0oVsGJHV-5">
          <mxGeometry y="86" width="260" height="26" as="geometry" />
        </mxCell>
        <mxCell id="7X8SiKdpSlec0oVsGJHV-8" value="+ setValorDeHora(int)" style="text;strokeColor=none;fillColor=none;align=left;verticalAlign=top;spacingLeft=4;spacingRight=4;overflow=hidden;rotatable=0;points=[[0,0.5],[1,0.5]];portConstraint=eastwest;fontStyle=0" vertex="1" parent="7X8SiKdpSlec0oVsGJHV-5">
          <mxGeometry y="112" width="260" height="26" as="geometry" />
        </mxCell>
        <mxCell id="7X8SiKdpSlec0oVsGJHV-36" value="+ activarConsejos()" style="text;strokeColor=none;fillColor=none;align=left;verticalAlign=top;spacingLeft=4;spacingRight=4;overflow=hidden;rotatable=0;points=[[0,0.5],[1,0.5]];portConstraint=eastwest;fontStyle=0" vertex="1" parent="7X8SiKdpSlec0oVsGJHV-5">
          <mxGeometry y="138" width="260" height="26" as="geometry" />
        </mxCell>
        <mxCell id="7X8SiKdpSlec0oVsGJHV-35" value="+ desactivarConsejos()" style="text;strokeColor=none;fillColor=none;align=left;verticalAlign=top;spacingLeft=4;spacingRight=4;overflow=hidden;rotatable=0;points=[[0,0.5],[1,0.5]];portConstraint=eastwest;fontStyle=0" vertex="1" parent="7X8SiKdpSlec0oVsGJHV-5">
          <mxGeometry y="164" width="260" height="26" as="geometry" />
        </mxCell>
        <mxCell id="7X8SiKdpSlec0oVsGJHV-34" value="+ cambiarModo(Modo)" style="text;strokeColor=none;fillColor=none;align=left;verticalAlign=top;spacingLeft=4;spacingRight=4;overflow=hidden;rotatable=0;points=[[0,0.5],[1,0.5]];portConstraint=eastwest;fontStyle=0" vertex="1" parent="7X8SiKdpSlec0oVsGJHV-5">
          <mxGeometry y="190" width="260" height="26" as="geometry" />
        </mxCell>
        <mxCell id="7X8SiKdpSlec0oVsGJHV-33" value="+ iniciarEstacionamiento(int)" style="text;strokeColor=none;fillColor=none;align=left;verticalAlign=top;spacingLeft=4;spacingRight=4;overflow=hidden;rotatable=0;points=[[0,0.5],[1,0.5]];portConstraint=eastwest;fontStyle=0" vertex="1" parent="7X8SiKdpSlec0oVsGJHV-5">
          <mxGeometry y="216" width="260" height="26" as="geometry" />
        </mxCell>
        <mxCell id="7X8SiKdpSlec0oVsGJHV-37" value="+ generarRegistro()" style="text;strokeColor=none;fillColor=none;align=left;verticalAlign=top;spacingLeft=4;spacingRight=4;overflow=hidden;rotatable=0;points=[[0,0.5],[1,0.5]];portConstraint=eastwest;fontStyle=0" vertex="1" parent="7X8SiKdpSlec0oVsGJHV-5">
          <mxGeometry y="242" width="260" height="26" as="geometry" />
        </mxCell>
        <mxCell id="7X8SiKdpSlec0oVsGJHV-40" value="# validarEstacionamientoManual()" style="text;strokeColor=none;fillColor=none;align=left;verticalAlign=top;spacingLeft=4;spacingRight=4;overflow=hidden;rotatable=0;points=[[0,0.5],[1,0.5]];portConstraint=eastwest;fontStyle=0" vertex="1" parent="7X8SiKdpSlec0oVsGJHV-5">
          <mxGeometry y="268" width="260" height="26" as="geometry" />
        </mxCell>
        <mxCell id="7X8SiKdpSlec0oVsGJHV-38" value="+ finalizarEstacionamiento()" style="text;strokeColor=none;fillColor=none;align=left;verticalAlign=top;spacingLeft=4;spacingRight=4;overflow=hidden;rotatable=0;points=[[0,0.5],[1,0.5]];portConstraint=eastwest;fontStyle=0" vertex="1" parent="7X8SiKdpSlec0oVsGJHV-5">
          <mxGeometry y="294" width="260" height="26" as="geometry" />
        </mxCell>
        <mxCell id="7X8SiKdpSlec0oVsGJHV-39" value="+ realizarFinalizacion()" style="text;strokeColor=none;fillColor=none;align=left;verticalAlign=top;spacingLeft=4;spacingRight=4;overflow=hidden;rotatable=0;points=[[0,0.5],[1,0.5]];portConstraint=eastwest;fontStyle=0" vertex="1" parent="7X8SiKdpSlec0oVsGJHV-5">
          <mxGeometry y="320" width="260" height="26" as="geometry" />
        </mxCell>
        <mxCell id="7X8SiKdpSlec0oVsGJHV-44" value="+ walking()" style="text;strokeColor=none;fillColor=none;align=left;verticalAlign=top;spacingLeft=4;spacingRight=4;overflow=hidden;rotatable=0;points=[[0,0.5],[1,0.5]];portConstraint=eastwest;fontStyle=0" vertex="1" parent="7X8SiKdpSlec0oVsGJHV-5">
          <mxGeometry y="346" width="260" height="26" as="geometry" />
        </mxCell>
        <mxCell id="7X8SiKdpSlec0oVsGJHV-43" value="+ driving()" style="text;strokeColor=none;fillColor=none;align=left;verticalAlign=top;spacingLeft=4;spacingRight=4;overflow=hidden;rotatable=0;points=[[0,0.5],[1,0.5]];portConstraint=eastwest;fontStyle=0" vertex="1" parent="7X8SiKdpSlec0oVsGJHV-5">
          <mxGeometry y="372" width="260" height="26" as="geometry" />
        </mxCell>
        <mxCell id="7X8SiKdpSlec0oVsGJHV-42" value="+ aconsejarInicio()" style="text;strokeColor=none;fillColor=none;align=left;verticalAlign=top;spacingLeft=4;spacingRight=4;overflow=hidden;rotatable=0;points=[[0,0.5],[1,0.5]];portConstraint=eastwest;fontStyle=0" vertex="1" parent="7X8SiKdpSlec0oVsGJHV-5">
          <mxGeometry y="398" width="260" height="26" as="geometry" />
        </mxCell>
        <mxCell id="7X8SiKdpSlec0oVsGJHV-41" value="+ aconsejarFinal()" style="text;strokeColor=none;fillColor=none;align=left;verticalAlign=top;spacingLeft=4;spacingRight=4;overflow=hidden;rotatable=0;points=[[0,0.5],[1,0.5]];portConstraint=eastwest;fontStyle=0" vertex="1" parent="7X8SiKdpSlec0oVsGJHV-5">
          <mxGeometry y="424" width="260" height="26" as="geometry" />
        </mxCell>
        <mxCell id="7X8SiKdpSlec0oVsGJHV-12" value="Celular" style="swimlane;fontStyle=1;align=center;verticalAlign=top;childLayout=stackLayout;horizontal=1;startSize=26;horizontalStack=0;resizeParent=1;resizeParentMax=0;resizeLast=0;collapsible=1;marginBottom=0;" vertex="1" parent="1">
          <mxGeometry x="850" y="680" width="270" height="320" as="geometry" />
        </mxCell>
        <mxCell id="7X8SiKdpSlec0oVsGJHV-14" value="- numero : String" style="text;strokeColor=none;fillColor=none;align=left;verticalAlign=top;spacingLeft=4;spacingRight=4;overflow=hidden;rotatable=0;points=[[0,0.5],[1,0.5]];portConstraint=eastwest;" vertex="1" parent="7X8SiKdpSlec0oVsGJHV-12">
          <mxGeometry y="26" width="270" height="26" as="geometry" />
        </mxCell>
        <mxCell id="7X8SiKdpSlec0oVsGJHV-15" value="- patenteLinkeada : String" style="text;strokeColor=none;fillColor=none;align=left;verticalAlign=top;spacingLeft=4;spacingRight=4;overflow=hidden;rotatable=0;points=[[0,0.5],[1,0.5]];portConstraint=eastwest;" vertex="1" parent="7X8SiKdpSlec0oVsGJHV-12">
          <mxGeometry y="52" width="270" height="26" as="geometry" />
        </mxCell>
        <mxCell id="7X8SiKdpSlec0oVsGJHV-17" value="" style="line;strokeWidth=1;fillColor=none;align=left;verticalAlign=middle;spacingTop=-1;spacingLeft=3;spacingRight=3;rotatable=0;labelPosition=right;points=[];portConstraint=eastwest;" vertex="1" parent="7X8SiKdpSlec0oVsGJHV-12">
          <mxGeometry y="78" width="270" height="8" as="geometry" />
        </mxCell>
        <mxCell id="7X8SiKdpSlec0oVsGJHV-297" value="+ Celular(String, String, Gps, MovementSensor)" style="text;strokeColor=none;fillColor=none;align=left;verticalAlign=top;spacingLeft=4;spacingRight=4;overflow=hidden;rotatable=0;points=[[0,0.5],[1,0.5]];portConstraint=eastwest;fontStyle=4" vertex="1" parent="7X8SiKdpSlec0oVsGJHV-12">
          <mxGeometry y="86" width="270" height="26" as="geometry" />
        </mxCell>
        <mxCell id="7X8SiKdpSlec0oVsGJHV-298" value="+ getPatente(): String" style="text;strokeColor=none;fillColor=none;align=left;verticalAlign=top;spacingLeft=4;spacingRight=4;overflow=hidden;rotatable=0;points=[[0,0.5],[1,0.5]];portConstraint=eastwest;fontStyle=0" vertex="1" parent="7X8SiKdpSlec0oVsGJHV-12">
          <mxGeometry y="112" width="270" height="26" as="geometry" />
        </mxCell>
        <mxCell id="7X8SiKdpSlec0oVsGJHV-299" value="+ getNumero(): String" style="text;strokeColor=none;fillColor=none;align=left;verticalAlign=top;spacingLeft=4;spacingRight=4;overflow=hidden;rotatable=0;points=[[0,0.5],[1,0.5]];portConstraint=eastwest;fontStyle=0" vertex="1" parent="7X8SiKdpSlec0oVsGJHV-12">
          <mxGeometry y="138" width="270" height="26" as="geometry" />
        </mxCell>
        <mxCell id="7X8SiKdpSlec0oVsGJHV-300" value="+ validarSaldo(int)" style="text;strokeColor=none;fillColor=none;align=left;verticalAlign=top;spacingLeft=4;spacingRight=4;overflow=hidden;rotatable=0;points=[[0,0.5],[1,0.5]];portConstraint=eastwest;fontStyle=0" vertex="1" parent="7X8SiKdpSlec0oVsGJHV-12">
          <mxGeometry y="164" width="270" height="26" as="geometry" />
        </mxCell>
        <mxCell id="7X8SiKdpSlec0oVsGJHV-301" value="+ estaEnZonaDeEstacionamiento(): boolean" style="text;strokeColor=none;fillColor=none;align=left;verticalAlign=top;spacingLeft=4;spacingRight=4;overflow=hidden;rotatable=0;points=[[0,0.5],[1,0.5]];portConstraint=eastwest;fontStyle=0" vertex="1" parent="7X8SiKdpSlec0oVsGJHV-12">
          <mxGeometry y="190" width="270" height="26" as="geometry" />
        </mxCell>
        <mxCell id="7X8SiKdpSlec0oVsGJHV-302" value="+ getSaldoActual(): int" style="text;strokeColor=none;fillColor=none;align=left;verticalAlign=top;spacingLeft=4;spacingRight=4;overflow=hidden;rotatable=0;points=[[0,0.5],[1,0.5]];portConstraint=eastwest;fontStyle=0" vertex="1" parent="7X8SiKdpSlec0oVsGJHV-12">
          <mxGeometry y="216" width="270" height="26" as="geometry" />
        </mxCell>
        <mxCell id="7X8SiKdpSlec0oVsGJHV-303" value="+ getZona(): String" style="text;strokeColor=none;fillColor=none;align=left;verticalAlign=top;spacingLeft=4;spacingRight=4;overflow=hidden;rotatable=0;points=[[0,0.5],[1,0.5]];portConstraint=eastwest;fontStyle=0" vertex="1" parent="7X8SiKdpSlec0oVsGJHV-12">
          <mxGeometry y="242" width="270" height="26" as="geometry" />
        </mxCell>
        <mxCell id="7X8SiKdpSlec0oVsGJHV-304" value="+ notificar(String)" style="text;strokeColor=none;fillColor=none;align=left;verticalAlign=top;spacingLeft=4;spacingRight=4;overflow=hidden;rotatable=0;points=[[0,0.5],[1,0.5]];portConstraint=eastwest;fontStyle=0" vertex="1" parent="7X8SiKdpSlec0oVsGJHV-12">
          <mxGeometry y="268" width="270" height="26" as="geometry" />
        </mxCell>
        <mxCell id="7X8SiKdpSlec0oVsGJHV-18" value="+ cambiarModoApp(Modo)" style="text;strokeColor=none;fillColor=none;align=left;verticalAlign=top;spacingLeft=4;spacingRight=4;overflow=hidden;rotatable=0;points=[[0,0.5],[1,0.5]];portConstraint=eastwest;fontStyle=0" vertex="1" parent="7X8SiKdpSlec0oVsGJHV-12">
          <mxGeometry y="294" width="270" height="26" as="geometry" />
        </mxCell>
        <mxCell id="7X8SiKdpSlec0oVsGJHV-19" value="PuntoDeCarga" style="swimlane;fontStyle=1;align=center;verticalAlign=top;childLayout=stackLayout;horizontal=1;startSize=26;horizontalStack=0;resizeParent=1;resizeParentMax=0;resizeLast=0;collapsible=1;marginBottom=0;" vertex="1" parent="1">
          <mxGeometry x="975" y="282" width="170" height="60" as="geometry" />
        </mxCell>
        <mxCell id="7X8SiKdpSlec0oVsGJHV-23" value="" style="line;strokeWidth=1;fillColor=none;align=left;verticalAlign=middle;spacingTop=-1;spacingLeft=3;spacingRight=3;rotatable=0;labelPosition=right;points=[];portConstraint=eastwest;" vertex="1" parent="7X8SiKdpSlec0oVsGJHV-19">
          <mxGeometry y="26" width="170" height="8" as="geometry" />
        </mxCell>
        <mxCell id="7X8SiKdpSlec0oVsGJHV-24" value="+ recargarCelular(Celular, int)" style="text;strokeColor=none;fillColor=none;align=left;verticalAlign=top;spacingLeft=4;spacingRight=4;overflow=hidden;rotatable=0;points=[[0,0.5],[1,0.5]];portConstraint=eastwest;" vertex="1" parent="7X8SiKdpSlec0oVsGJHV-19">
          <mxGeometry y="34" width="170" height="26" as="geometry" />
        </mxCell>
        <mxCell id="7X8SiKdpSlec0oVsGJHV-25" value="Notificador" style="swimlane;fontStyle=1;align=center;verticalAlign=top;childLayout=stackLayout;horizontal=1;startSize=26;horizontalStack=0;resizeParent=1;resizeParentMax=0;resizeLast=0;collapsible=1;marginBottom=0;" vertex="1" parent="1">
          <mxGeometry x="1810" y="758" width="190" height="164" as="geometry" />
        </mxCell>
        <mxCell id="7X8SiKdpSlec0oVsGJHV-26" value="# clock : Clock" style="text;strokeColor=none;fillColor=none;align=left;verticalAlign=top;spacingLeft=4;spacingRight=4;overflow=hidden;rotatable=0;points=[[0,0.5],[1,0.5]];portConstraint=eastwest;" vertex="1" parent="7X8SiKdpSlec0oVsGJHV-25">
          <mxGeometry y="26" width="190" height="26" as="geometry" />
        </mxCell>
        <mxCell id="7X8SiKdpSlec0oVsGJHV-29" value="" style="line;strokeWidth=1;fillColor=none;align=left;verticalAlign=middle;spacingTop=-1;spacingLeft=3;spacingRight=3;rotatable=0;labelPosition=right;points=[];portConstraint=eastwest;" vertex="1" parent="7X8SiKdpSlec0oVsGJHV-25">
          <mxGeometry y="52" width="190" height="8" as="geometry" />
        </mxCell>
        <mxCell id="7X8SiKdpSlec0oVsGJHV-30" value="+ informarInicio(Celular, Registro)" style="text;strokeColor=none;fillColor=none;align=left;verticalAlign=top;spacingLeft=4;spacingRight=4;overflow=hidden;rotatable=0;points=[[0,0.5],[1,0.5]];portConstraint=eastwest;" vertex="1" parent="7X8SiKdpSlec0oVsGJHV-25">
          <mxGeometry y="60" width="190" height="26" as="geometry" />
        </mxCell>
        <mxCell id="7X8SiKdpSlec0oVsGJHV-190" value="+ informarFinal(Celular, Registro)" style="text;strokeColor=none;fillColor=none;align=left;verticalAlign=top;spacingLeft=4;spacingRight=4;overflow=hidden;rotatable=0;points=[[0,0.5],[1,0.5]];portConstraint=eastwest;" vertex="1" parent="7X8SiKdpSlec0oVsGJHV-25">
          <mxGeometry y="86" width="190" height="26" as="geometry" />
        </mxCell>
        <mxCell id="7X8SiKdpSlec0oVsGJHV-188" value="+ aconsejarInicio(Celular)" style="text;strokeColor=none;fillColor=none;align=left;verticalAlign=top;spacingLeft=4;spacingRight=4;overflow=hidden;rotatable=0;points=[[0,0.5],[1,0.5]];portConstraint=eastwest;" vertex="1" parent="7X8SiKdpSlec0oVsGJHV-25">
          <mxGeometry y="112" width="190" height="26" as="geometry" />
        </mxCell>
        <mxCell id="7X8SiKdpSlec0oVsGJHV-189" value="+ aconsejarFinal(Celular)" style="text;strokeColor=none;fillColor=none;align=left;verticalAlign=top;spacingLeft=4;spacingRight=4;overflow=hidden;rotatable=0;points=[[0,0.5],[1,0.5]];portConstraint=eastwest;" vertex="1" parent="7X8SiKdpSlec0oVsGJHV-25">
          <mxGeometry y="138" width="190" height="26" as="geometry" />
        </mxCell>
        <mxCell id="7X8SiKdpSlec0oVsGJHV-46" value="AplicacionInspector" style="swimlane;fontStyle=1;align=center;verticalAlign=top;childLayout=stackLayout;horizontal=1;startSize=26;horizontalStack=0;resizeParent=1;resizeParentMax=0;resizeLast=0;collapsible=1;marginBottom=0;" vertex="1" parent="1">
          <mxGeometry x="1180" y="259" width="183" height="112" as="geometry" />
        </mxCell>
        <mxCell id="7X8SiKdpSlec0oVsGJHV-50" value="" style="line;strokeWidth=1;fillColor=none;align=left;verticalAlign=middle;spacingTop=-1;spacingLeft=3;spacingRight=3;rotatable=0;labelPosition=right;points=[];portConstraint=eastwest;" vertex="1" parent="7X8SiKdpSlec0oVsGJHV-46">
          <mxGeometry y="26" width="183" height="8" as="geometry" />
        </mxCell>
        <mxCell id="7X8SiKdpSlec0oVsGJHV-51" value="+ AplicacionInspector(Inspector)" style="text;strokeColor=none;fillColor=none;align=left;verticalAlign=top;spacingLeft=4;spacingRight=4;overflow=hidden;rotatable=0;points=[[0,0.5],[1,0.5]];portConstraint=eastwest;fontStyle=4" vertex="1" parent="7X8SiKdpSlec0oVsGJHV-46">
          <mxGeometry y="34" width="183" height="26" as="geometry" />
        </mxCell>
        <mxCell id="7X8SiKdpSlec0oVsGJHV-52" value="+ estaVigente(String) : boolean" style="text;strokeColor=none;fillColor=none;align=left;verticalAlign=top;spacingLeft=4;spacingRight=4;overflow=hidden;rotatable=0;points=[[0,0.5],[1,0.5]];portConstraint=eastwest;" vertex="1" parent="7X8SiKdpSlec0oVsGJHV-46">
          <mxGeometry y="60" width="183" height="26" as="geometry" />
        </mxCell>
        <mxCell id="7X8SiKdpSlec0oVsGJHV-53" value="+ altaDeInfraccion(String)" style="text;strokeColor=none;fillColor=none;align=left;verticalAlign=top;spacingLeft=4;spacingRight=4;overflow=hidden;rotatable=0;points=[[0,0.5],[1,0.5]];portConstraint=eastwest;" vertex="1" parent="7X8SiKdpSlec0oVsGJHV-46">
          <mxGeometry y="86" width="183" height="26" as="geometry" />
        </mxCell>
        <mxCell id="7X8SiKdpSlec0oVsGJHV-66" value="«interface»&lt;br&gt;&lt;b&gt;CelularReal&lt;/b&gt;" style="html=1;" vertex="1" parent="1">
          <mxGeometry x="1110" y="1138" width="155" height="50" as="geometry" />
        </mxCell>
        <mxCell id="7X8SiKdpSlec0oVsGJHV-60" value="# recibirNotificacion(String)" style="text;fillColor=none;align=left;verticalAlign=top;spacingLeft=4;spacingRight=4;overflow=hidden;rotatable=0;points=[[0,0.5],[1,0.5]];portConstraint=eastwest;labelBorderColor=none;labelBackgroundColor=none;strokeColor=#000000;" vertex="1" parent="1">
          <mxGeometry x="1110" y="1188" width="155" height="26" as="geometry" />
        </mxCell>
        <mxCell id="7X8SiKdpSlec0oVsGJHV-71" value="Inspector" style="swimlane;fontStyle=1;align=center;verticalAlign=top;childLayout=stackLayout;horizontal=1;startSize=26;horizontalStack=0;resizeParent=1;resizeParentMax=0;resizeLast=0;collapsible=1;marginBottom=0;" vertex="1" parent="1">
          <mxGeometry x="1420" y="370" width="160" height="190" as="geometry" />
        </mxCell>
        <mxCell id="7X8SiKdpSlec0oVsGJHV-72" value="- dni : int" style="text;strokeColor=none;fillColor=none;align=left;verticalAlign=top;spacingLeft=4;spacingRight=4;overflow=hidden;rotatable=0;points=[[0,0.5],[1,0.5]];portConstraint=eastwest;" vertex="1" parent="7X8SiKdpSlec0oVsGJHV-71">
          <mxGeometry y="26" width="160" height="26" as="geometry" />
        </mxCell>
        <mxCell id="7X8SiKdpSlec0oVsGJHV-73" value="- zona : String" style="text;strokeColor=none;fillColor=none;align=left;verticalAlign=top;spacingLeft=4;spacingRight=4;overflow=hidden;rotatable=0;points=[[0,0.5],[1,0.5]];portConstraint=eastwest;" vertex="1" parent="7X8SiKdpSlec0oVsGJHV-71">
          <mxGeometry y="52" width="160" height="26" as="geometry" />
        </mxCell>
        <mxCell id="7X8SiKdpSlec0oVsGJHV-75" value="" style="line;strokeWidth=1;fillColor=none;align=left;verticalAlign=middle;spacingTop=-1;spacingLeft=3;spacingRight=3;rotatable=0;labelPosition=right;points=[];portConstraint=eastwest;" vertex="1" parent="7X8SiKdpSlec0oVsGJHV-71">
          <mxGeometry y="78" width="160" height="8" as="geometry" />
        </mxCell>
        <mxCell id="7X8SiKdpSlec0oVsGJHV-76" value="+ Inspector(int, String)" style="text;strokeColor=none;fillColor=none;align=left;verticalAlign=top;spacingLeft=4;spacingRight=4;overflow=hidden;rotatable=0;points=[[0,0.5],[1,0.5]];portConstraint=eastwest;fontStyle=4" vertex="1" parent="7X8SiKdpSlec0oVsGJHV-71">
          <mxGeometry y="86" width="160" height="26" as="geometry" />
        </mxCell>
        <mxCell id="7X8SiKdpSlec0oVsGJHV-150" value="+ getDni(): int" style="text;strokeColor=none;fillColor=none;align=left;verticalAlign=top;spacingLeft=4;spacingRight=4;overflow=hidden;rotatable=0;points=[[0,0.5],[1,0.5]];portConstraint=eastwest;" vertex="1" parent="7X8SiKdpSlec0oVsGJHV-71">
          <mxGeometry y="112" width="160" height="26" as="geometry" />
        </mxCell>
        <mxCell id="7X8SiKdpSlec0oVsGJHV-151" value="+ getZona(): String" style="text;strokeColor=none;fillColor=none;align=left;verticalAlign=top;spacingLeft=4;spacingRight=4;overflow=hidden;rotatable=0;points=[[0,0.5],[1,0.5]];portConstraint=eastwest;" vertex="1" parent="7X8SiKdpSlec0oVsGJHV-71">
          <mxGeometry y="138" width="160" height="26" as="geometry" />
        </mxCell>
        <mxCell id="7X8SiKdpSlec0oVsGJHV-152" value="+ setZona(String)" style="text;strokeColor=none;fillColor=none;align=left;verticalAlign=top;spacingLeft=4;spacingRight=4;overflow=hidden;rotatable=0;points=[[0,0.5],[1,0.5]];portConstraint=eastwest;" vertex="1" parent="7X8SiKdpSlec0oVsGJHV-71">
          <mxGeometry y="164" width="160" height="26" as="geometry" />
        </mxCell>
        <mxCell id="7X8SiKdpSlec0oVsGJHV-77" value="CentroCelulares()" style="swimlane;fontStyle=1;align=center;verticalAlign=top;childLayout=stackLayout;horizontal=1;startSize=26;horizontalStack=0;resizeParent=1;resizeParentMax=0;resizeLast=0;collapsible=1;marginBottom=0;" vertex="1" parent="1">
          <mxGeometry x="487" y="250" width="290" height="320" as="geometry" />
        </mxCell>
        <mxCell id="7X8SiKdpSlec0oVsGJHV-78" value="# valorDeHora : int" style="text;strokeColor=none;fillColor=none;align=left;verticalAlign=top;spacingLeft=4;spacingRight=4;overflow=hidden;rotatable=0;points=[[0,0.5],[1,0.5]];portConstraint=eastwest;" vertex="1" parent="7X8SiKdpSlec0oVsGJHV-77">
          <mxGeometry y="26" width="290" height="26" as="geometry" />
        </mxCell>
        <mxCell id="7X8SiKdpSlec0oVsGJHV-79" value="# celularesRegistrados : HashMap&lt;String, Integer&gt;" style="text;strokeColor=none;fillColor=none;align=left;verticalAlign=top;spacingLeft=4;spacingRight=4;overflow=hidden;rotatable=0;points=[[0,0.5],[1,0.5]];portConstraint=eastwest;" vertex="1" parent="7X8SiKdpSlec0oVsGJHV-77">
          <mxGeometry y="52" width="290" height="26" as="geometry" />
        </mxCell>
        <mxCell id="7X8SiKdpSlec0oVsGJHV-80" value="# centro : CentroCelulares" style="text;strokeColor=none;fillColor=none;align=left;verticalAlign=top;spacingLeft=4;spacingRight=4;overflow=hidden;rotatable=0;points=[[0,0.5],[1,0.5]];portConstraint=eastwest;fontStyle=0" vertex="1" parent="7X8SiKdpSlec0oVsGJHV-77">
          <mxGeometry y="78" width="290" height="26" as="geometry" />
        </mxCell>
        <mxCell id="7X8SiKdpSlec0oVsGJHV-81" value="" style="line;strokeWidth=1;fillColor=none;align=left;verticalAlign=middle;spacingTop=-1;spacingLeft=3;spacingRight=3;rotatable=0;labelPosition=right;points=[];portConstraint=eastwest;" vertex="1" parent="7X8SiKdpSlec0oVsGJHV-77">
          <mxGeometry y="104" width="290" height="8" as="geometry" />
        </mxCell>
        <mxCell id="7X8SiKdpSlec0oVsGJHV-82" value="# CentroCelulares()" style="text;strokeColor=none;fillColor=none;align=left;verticalAlign=top;spacingLeft=4;spacingRight=4;overflow=hidden;rotatable=0;points=[[0,0.5],[1,0.5]];portConstraint=eastwest;fontStyle=4" vertex="1" parent="7X8SiKdpSlec0oVsGJHV-77">
          <mxGeometry y="112" width="290" height="26" as="geometry" />
        </mxCell>
        <mxCell id="7X8SiKdpSlec0oVsGJHV-88" value="+ getCentroCelulares() : CentroCelulares" style="text;strokeColor=none;fillColor=none;align=left;verticalAlign=top;spacingLeft=4;spacingRight=4;overflow=hidden;rotatable=0;points=[[0,0.5],[1,0.5]];portConstraint=eastwest;" vertex="1" parent="7X8SiKdpSlec0oVsGJHV-77">
          <mxGeometry y="138" width="290" height="26" as="geometry" />
        </mxCell>
        <mxCell id="7X8SiKdpSlec0oVsGJHV-87" value="+ setValorDeHora(int)" style="text;strokeColor=none;fillColor=none;align=left;verticalAlign=top;spacingLeft=4;spacingRight=4;overflow=hidden;rotatable=0;points=[[0,0.5],[1,0.5]];portConstraint=eastwest;" vertex="1" parent="7X8SiKdpSlec0oVsGJHV-77">
          <mxGeometry y="164" width="290" height="26" as="geometry" />
        </mxCell>
        <mxCell id="7X8SiKdpSlec0oVsGJHV-86" value="+ registrarCambio(String, int)" style="text;strokeColor=none;fillColor=none;align=left;verticalAlign=top;spacingLeft=4;spacingRight=4;overflow=hidden;rotatable=0;points=[[0,0.5],[1,0.5]];portConstraint=eastwest;" vertex="1" parent="7X8SiKdpSlec0oVsGJHV-77">
          <mxGeometry y="190" width="290" height="26" as="geometry" />
        </mxCell>
        <mxCell id="7X8SiKdpSlec0oVsGJHV-85" value="- notificarObservers(String, int)" style="text;strokeColor=none;fillColor=none;align=left;verticalAlign=top;spacingLeft=4;spacingRight=4;overflow=hidden;rotatable=0;points=[[0,0.5],[1,0.5]];portConstraint=eastwest;" vertex="1" parent="7X8SiKdpSlec0oVsGJHV-77">
          <mxGeometry y="216" width="290" height="26" as="geometry" />
        </mxCell>
        <mxCell id="7X8SiKdpSlec0oVsGJHV-84" value="+ saldoDe(String) : int" style="text;strokeColor=none;fillColor=none;align=left;verticalAlign=top;spacingLeft=4;spacingRight=4;overflow=hidden;rotatable=0;points=[[0,0.5],[1,0.5]];portConstraint=eastwest;" vertex="1" parent="7X8SiKdpSlec0oVsGJHV-77">
          <mxGeometry y="242" width="290" height="26" as="geometry" />
        </mxCell>
        <mxCell id="7X8SiKdpSlec0oVsGJHV-89" value="+ restarSaldo(String, int)" style="text;strokeColor=none;fillColor=none;align=left;verticalAlign=top;spacingLeft=4;spacingRight=4;overflow=hidden;rotatable=0;points=[[0,0.5],[1,0.5]];portConstraint=eastwest;" vertex="1" parent="7X8SiKdpSlec0oVsGJHV-77">
          <mxGeometry y="268" width="290" height="26" as="geometry" />
        </mxCell>
        <mxCell id="7X8SiKdpSlec0oVsGJHV-83" value="+ restarSaldo(String, int)" style="text;strokeColor=none;fillColor=none;align=left;verticalAlign=top;spacingLeft=4;spacingRight=4;overflow=hidden;rotatable=0;points=[[0,0.5],[1,0.5]];portConstraint=eastwest;" vertex="1" parent="7X8SiKdpSlec0oVsGJHV-77">
          <mxGeometry y="294" width="290" height="26" as="geometry" />
        </mxCell>
        <mxCell id="7X8SiKdpSlec0oVsGJHV-90" value="CentroInfracciones" style="swimlane;fontStyle=1;align=center;verticalAlign=top;childLayout=stackLayout;horizontal=1;startSize=26;horizontalStack=0;resizeParent=1;resizeParentMax=0;resizeLast=0;collapsible=1;marginBottom=0;" vertex="1" parent="1">
          <mxGeometry x="900" y="40" width="290" height="138" as="geometry" />
        </mxCell>
        <mxCell id="7X8SiKdpSlec0oVsGJHV-93" value="# centro : CentroInfracciones" style="text;strokeColor=none;fillColor=none;align=left;verticalAlign=top;spacingLeft=4;spacingRight=4;overflow=hidden;rotatable=0;points=[[0,0.5],[1,0.5]];portConstraint=eastwest;fontStyle=0" vertex="1" parent="7X8SiKdpSlec0oVsGJHV-90">
          <mxGeometry y="26" width="290" height="26" as="geometry" />
        </mxCell>
        <mxCell id="7X8SiKdpSlec0oVsGJHV-94" value="" style="line;strokeWidth=1;fillColor=none;align=left;verticalAlign=middle;spacingTop=-1;spacingLeft=3;spacingRight=3;rotatable=0;labelPosition=right;points=[];portConstraint=eastwest;" vertex="1" parent="7X8SiKdpSlec0oVsGJHV-90">
          <mxGeometry y="52" width="290" height="8" as="geometry" />
        </mxCell>
        <mxCell id="7X8SiKdpSlec0oVsGJHV-95" value="# CentroInfracciones()" style="text;strokeColor=none;fillColor=none;align=left;verticalAlign=top;spacingLeft=4;spacingRight=4;overflow=hidden;rotatable=0;points=[[0,0.5],[1,0.5]];portConstraint=eastwest;fontStyle=4" vertex="1" parent="7X8SiKdpSlec0oVsGJHV-90">
          <mxGeometry y="60" width="290" height="26" as="geometry" />
        </mxCell>
        <mxCell id="7X8SiKdpSlec0oVsGJHV-96" value="+ getCentro() : CentroInfracciones" style="text;strokeColor=none;fillColor=none;align=left;verticalAlign=top;spacingLeft=4;spacingRight=4;overflow=hidden;rotatable=0;points=[[0,0.5],[1,0.5]];portConstraint=eastwest;" vertex="1" parent="7X8SiKdpSlec0oVsGJHV-90">
          <mxGeometry y="86" width="290" height="26" as="geometry" />
        </mxCell>
        <mxCell id="7X8SiKdpSlec0oVsGJHV-97" value="+ registrarInfraccion(Infraccion)" style="text;strokeColor=none;fillColor=none;align=left;verticalAlign=top;spacingLeft=4;spacingRight=4;overflow=hidden;rotatable=0;points=[[0,0.5],[1,0.5]];portConstraint=eastwest;" vertex="1" parent="7X8SiKdpSlec0oVsGJHV-90">
          <mxGeometry y="112" width="290" height="26" as="geometry" />
        </mxCell>
        <mxCell id="7X8SiKdpSlec0oVsGJHV-104" value="CentroRegistros()" style="swimlane;fontStyle=1;align=center;verticalAlign=top;childLayout=stackLayout;horizontal=1;startSize=26;horizontalStack=0;resizeParent=1;resizeParentMax=0;resizeLast=0;collapsible=1;marginBottom=0;" vertex="1" parent="1">
          <mxGeometry x="90" y="250" width="290" height="294" as="geometry" />
        </mxCell>
        <mxCell id="7X8SiKdpSlec0oVsGJHV-107" value="# centro : CentroRegistros" style="text;strokeColor=none;fillColor=none;align=left;verticalAlign=top;spacingLeft=4;spacingRight=4;overflow=hidden;rotatable=0;points=[[0,0.5],[1,0.5]];portConstraint=eastwest;fontStyle=0" vertex="1" parent="7X8SiKdpSlec0oVsGJHV-104">
          <mxGeometry y="26" width="290" height="26" as="geometry" />
        </mxCell>
        <mxCell id="7X8SiKdpSlec0oVsGJHV-108" value="" style="line;strokeWidth=1;fillColor=none;align=left;verticalAlign=middle;spacingTop=-1;spacingLeft=3;spacingRight=3;rotatable=0;labelPosition=right;points=[];portConstraint=eastwest;" vertex="1" parent="7X8SiKdpSlec0oVsGJHV-104">
          <mxGeometry y="52" width="290" height="8" as="geometry" />
        </mxCell>
        <mxCell id="7X8SiKdpSlec0oVsGJHV-109" value="# CentroRegistros()" style="text;strokeColor=none;fillColor=none;align=left;verticalAlign=top;spacingLeft=4;spacingRight=4;overflow=hidden;rotatable=0;points=[[0,0.5],[1,0.5]];portConstraint=eastwest;fontStyle=4" vertex="1" parent="7X8SiKdpSlec0oVsGJHV-104">
          <mxGeometry y="60" width="290" height="26" as="geometry" />
        </mxCell>
        <mxCell id="7X8SiKdpSlec0oVsGJHV-110" value="+ getCentro() : CentroRegistros" style="text;strokeColor=none;fillColor=none;align=left;verticalAlign=top;spacingLeft=4;spacingRight=4;overflow=hidden;rotatable=0;points=[[0,0.5],[1,0.5]];portConstraint=eastwest;" vertex="1" parent="7X8SiKdpSlec0oVsGJHV-104">
          <mxGeometry y="86" width="290" height="26" as="geometry" />
        </mxCell>
        <mxCell id="7X8SiKdpSlec0oVsGJHV-111" value="+ registrarInicio(Registro)" style="text;strokeColor=none;fillColor=none;align=left;verticalAlign=top;spacingLeft=4;spacingRight=4;overflow=hidden;rotatable=0;points=[[0,0.5],[1,0.5]];portConstraint=eastwest;" vertex="1" parent="7X8SiKdpSlec0oVsGJHV-104">
          <mxGeometry y="112" width="290" height="26" as="geometry" />
        </mxCell>
        <mxCell id="7X8SiKdpSlec0oVsGJHV-112" value="+ finalizarTodos()" style="text;strokeColor=none;fillColor=none;align=left;verticalAlign=top;spacingLeft=4;spacingRight=4;overflow=hidden;rotatable=0;points=[[0,0.5],[1,0.5]];portConstraint=eastwest;" vertex="1" parent="7X8SiKdpSlec0oVsGJHV-104">
          <mxGeometry y="138" width="290" height="26" as="geometry" />
        </mxCell>
        <mxCell id="7X8SiKdpSlec0oVsGJHV-113" value="+ registrarFinal(String)" style="text;strokeColor=none;fillColor=none;align=left;verticalAlign=top;spacingLeft=4;spacingRight=4;overflow=hidden;rotatable=0;points=[[0,0.5],[1,0.5]];portConstraint=eastwest;" vertex="1" parent="7X8SiKdpSlec0oVsGJHV-104">
          <mxGeometry y="164" width="290" height="26" as="geometry" />
        </mxCell>
        <mxCell id="7X8SiKdpSlec0oVsGJHV-114" value="- finalizar(Registro)" style="text;strokeColor=none;fillColor=none;align=left;verticalAlign=top;spacingLeft=4;spacingRight=4;overflow=hidden;rotatable=0;points=[[0,0.5],[1,0.5]];portConstraint=eastwest;" vertex="1" parent="7X8SiKdpSlec0oVsGJHV-104">
          <mxGeometry y="190" width="290" height="26" as="geometry" />
        </mxCell>
        <mxCell id="7X8SiKdpSlec0oVsGJHV-115" value="+ estaVigente(String) : boolean" style="text;strokeColor=none;fillColor=none;align=left;verticalAlign=top;spacingLeft=4;spacingRight=4;overflow=hidden;rotatable=0;points=[[0,0.5],[1,0.5]];portConstraint=eastwest;" vertex="1" parent="7X8SiKdpSlec0oVsGJHV-104">
          <mxGeometry y="216" width="290" height="26" as="geometry" />
        </mxCell>
        <mxCell id="7X8SiKdpSlec0oVsGJHV-116" value="+ getRegistro(String) : Registro" style="text;strokeColor=none;fillColor=none;align=left;verticalAlign=top;spacingLeft=4;spacingRight=4;overflow=hidden;rotatable=0;points=[[0,0.5],[1,0.5]];portConstraint=eastwest;" vertex="1" parent="7X8SiKdpSlec0oVsGJHV-104">
          <mxGeometry y="242" width="290" height="26" as="geometry" />
        </mxCell>
        <mxCell id="7X8SiKdpSlec0oVsGJHV-118" value="+ validarExistenciaDeEstacionamiento(String)" style="text;strokeColor=none;fillColor=none;align=left;verticalAlign=top;spacingLeft=4;spacingRight=4;overflow=hidden;rotatable=0;points=[[0,0.5],[1,0.5]];portConstraint=eastwest;" vertex="1" parent="7X8SiKdpSlec0oVsGJHV-104">
          <mxGeometry y="268" width="290" height="26" as="geometry" />
        </mxCell>
        <mxCell id="7X8SiKdpSlec0oVsGJHV-119" value="CentroZonas" style="swimlane;fontStyle=1;align=center;verticalAlign=top;childLayout=stackLayout;horizontal=1;startSize=26;horizontalStack=0;resizeParent=1;resizeParentMax=0;resizeLast=0;collapsible=1;marginBottom=0;" vertex="1" parent="1">
          <mxGeometry x="1640" y="40" width="290" height="242" as="geometry" />
        </mxCell>
        <mxCell id="7X8SiKdpSlec0oVsGJHV-120" value="# centro : CentroZonas" style="text;strokeColor=none;fillColor=none;align=left;verticalAlign=top;spacingLeft=4;spacingRight=4;overflow=hidden;rotatable=0;points=[[0,0.5],[1,0.5]];portConstraint=eastwest;fontStyle=0" vertex="1" parent="7X8SiKdpSlec0oVsGJHV-119">
          <mxGeometry y="26" width="290" height="26" as="geometry" />
        </mxCell>
        <mxCell id="7X8SiKdpSlec0oVsGJHV-121" value="# zonas : ArrayList&lt;String&gt;" style="text;strokeColor=none;fillColor=none;align=left;verticalAlign=top;spacingLeft=4;spacingRight=4;overflow=hidden;rotatable=0;points=[[0,0.5],[1,0.5]];portConstraint=eastwest;fontStyle=0" vertex="1" parent="7X8SiKdpSlec0oVsGJHV-119">
          <mxGeometry y="52" width="290" height="26" as="geometry" />
        </mxCell>
        <mxCell id="7X8SiKdpSlec0oVsGJHV-122" value="" style="line;strokeWidth=1;fillColor=none;align=left;verticalAlign=middle;spacingTop=-1;spacingLeft=3;spacingRight=3;rotatable=0;labelPosition=right;points=[];portConstraint=eastwest;" vertex="1" parent="7X8SiKdpSlec0oVsGJHV-119">
          <mxGeometry y="78" width="290" height="8" as="geometry" />
        </mxCell>
        <mxCell id="7X8SiKdpSlec0oVsGJHV-123" value="# CentroZonas()" style="text;strokeColor=none;fillColor=none;align=left;verticalAlign=top;spacingLeft=4;spacingRight=4;overflow=hidden;rotatable=0;points=[[0,0.5],[1,0.5]];portConstraint=eastwest;fontStyle=4" vertex="1" parent="7X8SiKdpSlec0oVsGJHV-119">
          <mxGeometry y="86" width="290" height="26" as="geometry" />
        </mxCell>
        <mxCell id="7X8SiKdpSlec0oVsGJHV-124" value="+ getCentro() : CentroZonas" style="text;strokeColor=none;fillColor=none;align=left;verticalAlign=top;spacingLeft=4;spacingRight=4;overflow=hidden;rotatable=0;points=[[0,0.5],[1,0.5]];portConstraint=eastwest;" vertex="1" parent="7X8SiKdpSlec0oVsGJHV-119">
          <mxGeometry y="112" width="290" height="26" as="geometry" />
        </mxCell>
        <mxCell id="7X8SiKdpSlec0oVsGJHV-125" value="+ agregarZona(String)" style="text;strokeColor=none;fillColor=none;align=left;verticalAlign=top;spacingLeft=4;spacingRight=4;overflow=hidden;rotatable=0;points=[[0,0.5],[1,0.5]];portConstraint=eastwest;" vertex="1" parent="7X8SiKdpSlec0oVsGJHV-119">
          <mxGeometry y="138" width="290" height="26" as="geometry" />
        </mxCell>
        <mxCell id="7X8SiKdpSlec0oVsGJHV-126" value="+ eliminarZona(String)" style="text;strokeColor=none;fillColor=none;align=left;verticalAlign=top;spacingLeft=4;spacingRight=4;overflow=hidden;rotatable=0;points=[[0,0.5],[1,0.5]];portConstraint=eastwest;" vertex="1" parent="7X8SiKdpSlec0oVsGJHV-119">
          <mxGeometry y="164" width="290" height="26" as="geometry" />
        </mxCell>
        <mxCell id="7X8SiKdpSlec0oVsGJHV-127" value="+ esZonaDeEstacionamiento(String) : boolean" style="text;strokeColor=none;fillColor=none;align=left;verticalAlign=top;spacingLeft=4;spacingRight=4;overflow=hidden;rotatable=0;points=[[0,0.5],[1,0.5]];portConstraint=eastwest;" vertex="1" parent="7X8SiKdpSlec0oVsGJHV-119">
          <mxGeometry y="190" width="290" height="26" as="geometry" />
        </mxCell>
        <mxCell id="7X8SiKdpSlec0oVsGJHV-128" value="+ validarZona(String)" style="text;strokeColor=none;fillColor=none;align=left;verticalAlign=top;spacingLeft=4;spacingRight=4;overflow=hidden;rotatable=0;points=[[0,0.5],[1,0.5]];portConstraint=eastwest;" vertex="1" parent="7X8SiKdpSlec0oVsGJHV-119">
          <mxGeometry y="216" width="290" height="26" as="geometry" />
        </mxCell>
        <mxCell id="7X8SiKdpSlec0oVsGJHV-136" value="«interface»&lt;br&gt;&lt;b&gt;Gps&lt;/b&gt;" style="html=1;" vertex="1" parent="1">
          <mxGeometry x="950" y="1138" width="130" height="50" as="geometry" />
        </mxCell>
        <mxCell id="7X8SiKdpSlec0oVsGJHV-137" value="+ driving()" style="text;fillColor=none;align=left;verticalAlign=top;spacingLeft=4;spacingRight=4;overflow=hidden;rotatable=0;points=[[0,0.5],[1,0.5]];portConstraint=eastwest;labelBorderColor=none;labelBackgroundColor=none;strokeColor=#000000;" vertex="1" parent="1">
          <mxGeometry x="330" y="1246" width="170" height="26" as="geometry" />
        </mxCell>
        <mxCell id="7X8SiKdpSlec0oVsGJHV-138" value="Infraccion" style="swimlane;fontStyle=1;align=center;verticalAlign=top;childLayout=stackLayout;horizontal=1;startSize=26;horizontalStack=0;resizeParent=1;resizeParentMax=0;resizeLast=0;collapsible=1;marginBottom=0;" vertex="1" parent="1">
          <mxGeometry x="1400" y="40" width="200" height="242" as="geometry" />
        </mxCell>
        <mxCell id="7X8SiKdpSlec0oVsGJHV-139" value="- patente: String" style="text;strokeColor=none;fillColor=none;align=left;verticalAlign=top;spacingLeft=4;spacingRight=4;overflow=hidden;rotatable=0;points=[[0,0.5],[1,0.5]];portConstraint=eastwest;" vertex="1" parent="7X8SiKdpSlec0oVsGJHV-138">
          <mxGeometry y="26" width="200" height="26" as="geometry" />
        </mxCell>
        <mxCell id="7X8SiKdpSlec0oVsGJHV-140" value="- fechaYHora: LocalDateTime" style="text;strokeColor=none;fillColor=none;align=left;verticalAlign=top;spacingLeft=4;spacingRight=4;overflow=hidden;rotatable=0;points=[[0,0.5],[1,0.5]];portConstraint=eastwest;" vertex="1" parent="7X8SiKdpSlec0oVsGJHV-138">
          <mxGeometry y="52" width="200" height="26" as="geometry" />
        </mxCell>
        <mxCell id="7X8SiKdpSlec0oVsGJHV-141" value="- zona: String" style="text;strokeColor=none;fillColor=none;align=left;verticalAlign=top;spacingLeft=4;spacingRight=4;overflow=hidden;rotatable=0;points=[[0,0.5],[1,0.5]];portConstraint=eastwest;" vertex="1" parent="7X8SiKdpSlec0oVsGJHV-138">
          <mxGeometry y="78" width="200" height="26" as="geometry" />
        </mxCell>
        <mxCell id="7X8SiKdpSlec0oVsGJHV-142" value="" style="line;strokeWidth=1;fillColor=none;align=left;verticalAlign=middle;spacingTop=-1;spacingLeft=3;spacingRight=3;rotatable=0;labelPosition=right;points=[];portConstraint=eastwest;" vertex="1" parent="7X8SiKdpSlec0oVsGJHV-138">
          <mxGeometry y="104" width="200" height="8" as="geometry" />
        </mxCell>
        <mxCell id="7X8SiKdpSlec0oVsGJHV-143" value="+ Infraccion(String, Inspector)" style="text;strokeColor=none;fillColor=none;align=left;verticalAlign=top;spacingLeft=4;spacingRight=4;overflow=hidden;rotatable=0;points=[[0,0.5],[1,0.5]];portConstraint=eastwest;fontStyle=4" vertex="1" parent="7X8SiKdpSlec0oVsGJHV-138">
          <mxGeometry y="112" width="200" height="26" as="geometry" />
        </mxCell>
        <mxCell id="7X8SiKdpSlec0oVsGJHV-145" value="+ getPatente(): String" style="text;strokeColor=none;fillColor=none;align=left;verticalAlign=top;spacingLeft=4;spacingRight=4;overflow=hidden;rotatable=0;points=[[0,0.5],[1,0.5]];portConstraint=eastwest;" vertex="1" parent="7X8SiKdpSlec0oVsGJHV-138">
          <mxGeometry y="138" width="200" height="26" as="geometry" />
        </mxCell>
        <mxCell id="7X8SiKdpSlec0oVsGJHV-146" value="+ getFechaYHora(): LocalDateTime" style="text;strokeColor=none;fillColor=none;align=left;verticalAlign=top;spacingLeft=4;spacingRight=4;overflow=hidden;rotatable=0;points=[[0,0.5],[1,0.5]];portConstraint=eastwest;" vertex="1" parent="7X8SiKdpSlec0oVsGJHV-138">
          <mxGeometry y="164" width="200" height="26" as="geometry" />
        </mxCell>
        <mxCell id="7X8SiKdpSlec0oVsGJHV-147" value="+ getInspector(): Inspector" style="text;strokeColor=none;fillColor=none;align=left;verticalAlign=top;spacingLeft=4;spacingRight=4;overflow=hidden;rotatable=0;points=[[0,0.5],[1,0.5]];portConstraint=eastwest;" vertex="1" parent="7X8SiKdpSlec0oVsGJHV-138">
          <mxGeometry y="190" width="200" height="26" as="geometry" />
        </mxCell>
        <mxCell id="7X8SiKdpSlec0oVsGJHV-148" value="+ getZona(): String" style="text;strokeColor=none;fillColor=none;align=left;verticalAlign=top;spacingLeft=4;spacingRight=4;overflow=hidden;rotatable=0;points=[[0,0.5],[1,0.5]];portConstraint=eastwest;" vertex="1" parent="7X8SiKdpSlec0oVsGJHV-138">
          <mxGeometry y="216" width="200" height="26" as="geometry" />
        </mxCell>
        <mxCell id="7X8SiKdpSlec0oVsGJHV-153" value="Modo" style="swimlane;fontStyle=3;align=center;verticalAlign=top;childLayout=stackLayout;horizontal=1;startSize=26;horizontalStack=0;resizeParent=1;resizeParentMax=0;resizeLast=0;collapsible=1;marginBottom=0;" vertex="1" parent="1">
          <mxGeometry x="1795" y="1020" width="240" height="190" as="geometry" />
        </mxCell>
        <mxCell id="7X8SiKdpSlec0oVsGJHV-154" value="# estado: String" style="text;strokeColor=none;fillColor=none;align=left;verticalAlign=top;spacingLeft=4;spacingRight=4;overflow=hidden;rotatable=0;points=[[0,0.5],[1,0.5]];portConstraint=eastwest;" vertex="1" parent="7X8SiKdpSlec0oVsGJHV-153">
          <mxGeometry y="26" width="240" height="26" as="geometry" />
        </mxCell>
        <mxCell id="7X8SiKdpSlec0oVsGJHV-156" value="" style="line;strokeWidth=1;fillColor=none;align=left;verticalAlign=middle;spacingTop=-1;spacingLeft=3;spacingRight=3;rotatable=0;labelPosition=right;points=[];portConstraint=eastwest;" vertex="1" parent="7X8SiKdpSlec0oVsGJHV-153">
          <mxGeometry y="52" width="240" height="8" as="geometry" />
        </mxCell>
        <mxCell id="7X8SiKdpSlec0oVsGJHV-158" value="+ iniciarEstacionamiento(AplicacionCliente)" style="text;strokeColor=none;fillColor=none;align=left;verticalAlign=top;spacingLeft=4;spacingRight=4;overflow=hidden;rotatable=0;points=[[0,0.5],[1,0.5]];portConstraint=eastwest;fontStyle=2" vertex="1" parent="7X8SiKdpSlec0oVsGJHV-153">
          <mxGeometry y="60" width="240" height="26" as="geometry" />
        </mxCell>
        <mxCell id="7X8SiKdpSlec0oVsGJHV-159" value="+ finalizacionManual(): boolean" style="text;strokeColor=none;fillColor=none;align=left;verticalAlign=top;spacingLeft=4;spacingRight=4;overflow=hidden;rotatable=0;points=[[0,0.5],[1,0.5]];portConstraint=eastwest;fontStyle=2" vertex="1" parent="7X8SiKdpSlec0oVsGJHV-153">
          <mxGeometry y="86" width="240" height="26" as="geometry" />
        </mxCell>
        <mxCell id="7X8SiKdpSlec0oVsGJHV-160" value="+ requiereNotificaciones(): boolean" style="text;strokeColor=none;fillColor=none;align=left;verticalAlign=top;spacingLeft=4;spacingRight=4;overflow=hidden;rotatable=0;points=[[0,0.5],[1,0.5]];portConstraint=eastwest;fontStyle=2" vertex="1" parent="7X8SiKdpSlec0oVsGJHV-153">
          <mxGeometry y="112" width="240" height="26" as="geometry" />
        </mxCell>
        <mxCell id="7X8SiKdpSlec0oVsGJHV-161" value="# walking(AplicacionCliente)" style="text;strokeColor=none;fillColor=none;align=left;verticalAlign=top;spacingLeft=4;spacingRight=4;overflow=hidden;rotatable=0;points=[[0,0.5],[1,0.5]];portConstraint=eastwest;" vertex="1" parent="7X8SiKdpSlec0oVsGJHV-153">
          <mxGeometry y="138" width="240" height="26" as="geometry" />
        </mxCell>
        <mxCell id="7X8SiKdpSlec0oVsGJHV-162" value="# driving(AplicacionCliente)" style="text;strokeColor=none;fillColor=none;align=left;verticalAlign=top;spacingLeft=4;spacingRight=4;overflow=hidden;rotatable=0;points=[[0,0.5],[1,0.5]];portConstraint=eastwest;" vertex="1" parent="7X8SiKdpSlec0oVsGJHV-153">
          <mxGeometry y="164" width="240" height="26" as="geometry" />
        </mxCell>
        <mxCell id="7X8SiKdpSlec0oVsGJHV-163" value="ModoAutomatico" style="swimlane;fontStyle=1;align=center;verticalAlign=top;childLayout=stackLayout;horizontal=1;startSize=26;horizontalStack=0;resizeParent=1;resizeParentMax=0;resizeLast=0;collapsible=1;marginBottom=0;" vertex="1" parent="1">
          <mxGeometry x="1730" y="1350" width="240" height="164" as="geometry" />
        </mxCell>
        <mxCell id="7X8SiKdpSlec0oVsGJHV-166" value="" style="line;strokeWidth=1;fillColor=none;align=left;verticalAlign=middle;spacingTop=-1;spacingLeft=3;spacingRight=3;rotatable=0;labelPosition=right;points=[];portConstraint=eastwest;" vertex="1" parent="7X8SiKdpSlec0oVsGJHV-163">
          <mxGeometry y="26" width="240" height="8" as="geometry" />
        </mxCell>
        <mxCell id="7X8SiKdpSlec0oVsGJHV-167" value="+ iniciarEstacionamiento(AplicacionCliente)" style="text;strokeColor=none;fillColor=none;align=left;verticalAlign=top;spacingLeft=4;spacingRight=4;overflow=hidden;rotatable=0;points=[[0,0.5],[1,0.5]];portConstraint=eastwest;fontStyle=0" vertex="1" parent="7X8SiKdpSlec0oVsGJHV-163">
          <mxGeometry y="34" width="240" height="26" as="geometry" />
        </mxCell>
        <mxCell id="7X8SiKdpSlec0oVsGJHV-168" value="+ finalizacionManual(): boolean" style="text;strokeColor=none;fillColor=none;align=left;verticalAlign=top;spacingLeft=4;spacingRight=4;overflow=hidden;rotatable=0;points=[[0,0.5],[1,0.5]];portConstraint=eastwest;" vertex="1" parent="7X8SiKdpSlec0oVsGJHV-163">
          <mxGeometry y="60" width="240" height="26" as="geometry" />
        </mxCell>
        <mxCell id="7X8SiKdpSlec0oVsGJHV-169" value="+ requiereNotificaciones(): boolean" style="text;strokeColor=none;fillColor=none;align=left;verticalAlign=top;spacingLeft=4;spacingRight=4;overflow=hidden;rotatable=0;points=[[0,0.5],[1,0.5]];portConstraint=eastwest;" vertex="1" parent="7X8SiKdpSlec0oVsGJHV-163">
          <mxGeometry y="86" width="240" height="26" as="geometry" />
        </mxCell>
        <mxCell id="7X8SiKdpSlec0oVsGJHV-172" value="+ walking(AplicacionCliente)" style="text;strokeColor=none;fillColor=none;align=left;verticalAlign=top;spacingLeft=4;spacingRight=4;overflow=hidden;rotatable=0;points=[[0,0.5],[1,0.5]];portConstraint=eastwest;" vertex="1" parent="7X8SiKdpSlec0oVsGJHV-163">
          <mxGeometry y="112" width="240" height="26" as="geometry" />
        </mxCell>
        <mxCell id="7X8SiKdpSlec0oVsGJHV-174" value="+ driving(AplicacionCliente)" style="text;strokeColor=none;fillColor=none;align=left;verticalAlign=top;spacingLeft=4;spacingRight=4;overflow=hidden;rotatable=0;points=[[0,0.5],[1,0.5]];portConstraint=eastwest;" vertex="1" parent="7X8SiKdpSlec0oVsGJHV-163">
          <mxGeometry y="138" width="240" height="26" as="geometry" />
        </mxCell>
        <mxCell id="7X8SiKdpSlec0oVsGJHV-175" value="ModoManual" style="swimlane;fontStyle=1;align=center;verticalAlign=top;childLayout=stackLayout;horizontal=1;startSize=26;horizontalStack=0;resizeParent=1;resizeParentMax=0;resizeLast=0;collapsible=1;marginBottom=0;" vertex="1" parent="1">
          <mxGeometry x="1290" y="1350" width="240" height="138" as="geometry" />
        </mxCell>
        <mxCell id="7X8SiKdpSlec0oVsGJHV-183" value="# patente : String" style="text;strokeColor=none;fillColor=none;align=left;verticalAlign=top;spacingLeft=4;spacingRight=4;overflow=hidden;rotatable=0;points=[[0,0.5],[1,0.5]];portConstraint=eastwest;" vertex="1" parent="7X8SiKdpSlec0oVsGJHV-175">
          <mxGeometry y="26" width="240" height="26" as="geometry" />
        </mxCell>
        <mxCell id="7X8SiKdpSlec0oVsGJHV-176" value="" style="line;strokeWidth=1;fillColor=none;align=left;verticalAlign=middle;spacingTop=-1;spacingLeft=3;spacingRight=3;rotatable=0;labelPosition=right;points=[];portConstraint=eastwest;" vertex="1" parent="7X8SiKdpSlec0oVsGJHV-175">
          <mxGeometry y="52" width="240" height="8" as="geometry" />
        </mxCell>
        <mxCell id="7X8SiKdpSlec0oVsGJHV-177" value="+ iniciarEstacionamiento(AplicacionCliente)" style="text;strokeColor=none;fillColor=none;align=left;verticalAlign=top;spacingLeft=4;spacingRight=4;overflow=hidden;rotatable=0;points=[[0,0.5],[1,0.5]];portConstraint=eastwest;fontStyle=0" vertex="1" parent="7X8SiKdpSlec0oVsGJHV-175">
          <mxGeometry y="60" width="240" height="26" as="geometry" />
        </mxCell>
        <mxCell id="7X8SiKdpSlec0oVsGJHV-178" value="+ finalizacionManual(): boolean" style="text;strokeColor=none;fillColor=none;align=left;verticalAlign=top;spacingLeft=4;spacingRight=4;overflow=hidden;rotatable=0;points=[[0,0.5],[1,0.5]];portConstraint=eastwest;" vertex="1" parent="7X8SiKdpSlec0oVsGJHV-175">
          <mxGeometry y="86" width="240" height="26" as="geometry" />
        </mxCell>
        <mxCell id="7X8SiKdpSlec0oVsGJHV-179" value="+ requiereNotificaciones(): boolean" style="text;strokeColor=none;fillColor=none;align=left;verticalAlign=top;spacingLeft=4;spacingRight=4;overflow=hidden;rotatable=0;points=[[0,0.5],[1,0.5]];portConstraint=eastwest;" vertex="1" parent="7X8SiKdpSlec0oVsGJHV-175">
          <mxGeometry y="112" width="240" height="26" as="geometry" />
        </mxCell>
        <mxCell id="7X8SiKdpSlec0oVsGJHV-185" value="«interface»&lt;br&gt;&lt;b&gt;MovementSensor&lt;/b&gt;" style="html=1;" vertex="1" parent="1">
          <mxGeometry x="330" y="1196" width="170" height="50" as="geometry" />
        </mxCell>
        <mxCell id="7X8SiKdpSlec0oVsGJHV-186" value="+ walking()" style="text;fillColor=none;align=left;verticalAlign=top;spacingLeft=4;spacingRight=4;overflow=hidden;rotatable=0;points=[[0,0.5],[1,0.5]];portConstraint=eastwest;labelBorderColor=none;labelBackgroundColor=none;strokeColor=#000000;" vertex="1" parent="1">
          <mxGeometry x="330" y="1272" width="170" height="26" as="geometry" />
        </mxCell>
        <mxCell id="7X8SiKdpSlec0oVsGJHV-187" value="+ addApp(AplicacionCliente)" style="text;fillColor=none;align=left;verticalAlign=top;spacingLeft=4;spacingRight=4;overflow=hidden;rotatable=0;points=[[0,0.5],[1,0.5]];portConstraint=eastwest;labelBorderColor=none;labelBackgroundColor=none;strokeColor=#000000;" vertex="1" parent="1">
          <mxGeometry x="330" y="1298" width="170" height="26" as="geometry" />
        </mxCell>
        <mxCell id="7X8SiKdpSlec0oVsGJHV-191" value="Observable" style="swimlane;fontStyle=1;align=center;verticalAlign=top;childLayout=stackLayout;horizontal=1;startSize=26;horizontalStack=0;resizeParent=1;resizeParentMax=0;resizeLast=0;collapsible=1;marginBottom=0;" vertex="1" parent="1">
          <mxGeometry x="560" y="10" width="190" height="112" as="geometry" />
        </mxCell>
        <mxCell id="7X8SiKdpSlec0oVsGJHV-193" value="" style="line;strokeWidth=1;fillColor=none;align=left;verticalAlign=middle;spacingTop=-1;spacingLeft=3;spacingRight=3;rotatable=0;labelPosition=right;points=[];portConstraint=eastwest;" vertex="1" parent="7X8SiKdpSlec0oVsGJHV-191">
          <mxGeometry y="26" width="190" height="8" as="geometry" />
        </mxCell>
        <mxCell id="7X8SiKdpSlec0oVsGJHV-194" value="+ addObserver(Observer)" style="text;strokeColor=none;fillColor=none;align=left;verticalAlign=top;spacingLeft=4;spacingRight=4;overflow=hidden;rotatable=0;points=[[0,0.5],[1,0.5]];portConstraint=eastwest;" vertex="1" parent="7X8SiKdpSlec0oVsGJHV-191">
          <mxGeometry y="34" width="190" height="26" as="geometry" />
        </mxCell>
        <mxCell id="7X8SiKdpSlec0oVsGJHV-195" value="+ deleteObserver(Observer)" style="text;strokeColor=none;fillColor=none;align=left;verticalAlign=top;spacingLeft=4;spacingRight=4;overflow=hidden;rotatable=0;points=[[0,0.5],[1,0.5]];portConstraint=eastwest;" vertex="1" parent="7X8SiKdpSlec0oVsGJHV-191">
          <mxGeometry y="60" width="190" height="26" as="geometry" />
        </mxCell>
        <mxCell id="7X8SiKdpSlec0oVsGJHV-196" value="+ notifyObservers(Object)" style="text;strokeColor=none;fillColor=none;align=left;verticalAlign=top;spacingLeft=4;spacingRight=4;overflow=hidden;rotatable=0;points=[[0,0.5],[1,0.5]];portConstraint=eastwest;" vertex="1" parent="7X8SiKdpSlec0oVsGJHV-191">
          <mxGeometry y="86" width="190" height="26" as="geometry" />
        </mxCell>
        <mxCell id="7X8SiKdpSlec0oVsGJHV-198" value="«interface»&lt;br&gt;&lt;b&gt;Observer&lt;/b&gt;" style="html=1;" vertex="1" parent="1">
          <mxGeometry x="304" y="14" width="130" height="50" as="geometry" />
        </mxCell>
        <mxCell id="7X8SiKdpSlec0oVsGJHV-199" value="+ update(Object)" style="text;fillColor=none;align=left;verticalAlign=top;spacingLeft=4;spacingRight=4;overflow=hidden;rotatable=0;points=[[0,0.5],[1,0.5]];portConstraint=eastwest;labelBorderColor=none;labelBackgroundColor=none;strokeColor=#000000;" vertex="1" parent="1">
          <mxGeometry x="304" y="64" width="130" height="26" as="geometry" />
        </mxCell>
        <mxCell id="7X8SiKdpSlec0oVsGJHV-200" value="PuntoDeVenta" style="swimlane;fontStyle=1;align=center;verticalAlign=top;childLayout=stackLayout;horizontal=1;startSize=26;horizontalStack=0;resizeParent=1;resizeParentMax=0;resizeLast=0;collapsible=1;marginBottom=0;" vertex="1" parent="1">
          <mxGeometry x="960" y="470" width="200" height="138" as="geometry" />
        </mxCell>
        <mxCell id="7X8SiKdpSlec0oVsGJHV-201" value="# zona : String" style="text;strokeColor=none;fillColor=none;align=left;verticalAlign=top;spacingLeft=4;spacingRight=4;overflow=hidden;rotatable=0;points=[[0,0.5],[1,0.5]];portConstraint=eastwest;fontStyle=0" vertex="1" parent="7X8SiKdpSlec0oVsGJHV-200">
          <mxGeometry y="26" width="200" height="26" as="geometry" />
        </mxCell>
        <mxCell id="7X8SiKdpSlec0oVsGJHV-204" value="# monto: int" style="text;strokeColor=none;fillColor=none;align=left;verticalAlign=top;spacingLeft=4;spacingRight=4;overflow=hidden;rotatable=0;points=[[0,0.5],[1,0.5]];portConstraint=eastwest;fontStyle=0" vertex="1" parent="7X8SiKdpSlec0oVsGJHV-200">
          <mxGeometry y="52" width="200" height="26" as="geometry" />
        </mxCell>
        <mxCell id="7X8SiKdpSlec0oVsGJHV-202" value="" style="line;strokeWidth=1;fillColor=none;align=left;verticalAlign=middle;spacingTop=-1;spacingLeft=3;spacingRight=3;rotatable=0;labelPosition=right;points=[];portConstraint=eastwest;" vertex="1" parent="7X8SiKdpSlec0oVsGJHV-200">
          <mxGeometry y="78" width="200" height="8" as="geometry" />
        </mxCell>
        <mxCell id="7X8SiKdpSlec0oVsGJHV-203" value="+ PuntoDeVenta(String)" style="text;strokeColor=none;fillColor=none;align=left;verticalAlign=top;spacingLeft=4;spacingRight=4;overflow=hidden;rotatable=0;points=[[0,0.5],[1,0.5]];portConstraint=eastwest;fontStyle=4" vertex="1" parent="7X8SiKdpSlec0oVsGJHV-200">
          <mxGeometry y="86" width="200" height="26" as="geometry" />
        </mxCell>
        <mxCell id="7X8SiKdpSlec0oVsGJHV-206" value="+ iniciarEstacionamiento(String, int)" style="text;strokeColor=none;fillColor=none;align=left;verticalAlign=top;spacingLeft=4;spacingRight=4;overflow=hidden;rotatable=0;points=[[0,0.5],[1,0.5]];portConstraint=eastwest;" vertex="1" parent="7X8SiKdpSlec0oVsGJHV-200">
          <mxGeometry y="112" width="200" height="26" as="geometry" />
        </mxCell>
        <mxCell id="7X8SiKdpSlec0oVsGJHV-207" value="Registro" style="swimlane;fontStyle=3;align=center;verticalAlign=top;childLayout=stackLayout;horizontal=1;startSize=26;horizontalStack=0;resizeParent=1;resizeParentMax=0;resizeLast=0;collapsible=1;marginBottom=0;" vertex="1" parent="1">
          <mxGeometry x="277" y="720" width="210" height="398" as="geometry" />
        </mxCell>
        <mxCell id="7X8SiKdpSlec0oVsGJHV-208" value="# clock : Clock" style="text;strokeColor=none;fillColor=none;align=left;verticalAlign=top;spacingLeft=4;spacingRight=4;overflow=hidden;rotatable=0;points=[[0,0.5],[1,0.5]];portConstraint=eastwest;fontStyle=0" vertex="1" parent="7X8SiKdpSlec0oVsGJHV-207">
          <mxGeometry y="26" width="210" height="26" as="geometry" />
        </mxCell>
        <mxCell id="7X8SiKdpSlec0oVsGJHV-209" value="# horaDeInicio: LocalDateTime" style="text;strokeColor=none;fillColor=none;align=left;verticalAlign=top;spacingLeft=4;spacingRight=4;overflow=hidden;rotatable=0;points=[[0,0.5],[1,0.5]];portConstraint=eastwest;fontStyle=0" vertex="1" parent="7X8SiKdpSlec0oVsGJHV-207">
          <mxGeometry y="52" width="210" height="26" as="geometry" />
        </mxCell>
        <mxCell id="7X8SiKdpSlec0oVsGJHV-210" value="- patente: String" style="text;strokeColor=none;fillColor=none;align=left;verticalAlign=top;spacingLeft=4;spacingRight=4;overflow=hidden;rotatable=0;points=[[0,0.5],[1,0.5]];portConstraint=eastwest;fontStyle=0" vertex="1" parent="7X8SiKdpSlec0oVsGJHV-207">
          <mxGeometry y="78" width="210" height="26" as="geometry" />
        </mxCell>
        <mxCell id="7X8SiKdpSlec0oVsGJHV-214" value="- zona: String" style="text;strokeColor=none;fillColor=none;align=left;verticalAlign=top;spacingLeft=4;spacingRight=4;overflow=hidden;rotatable=0;points=[[0,0.5],[1,0.5]];portConstraint=eastwest;fontStyle=0" vertex="1" parent="7X8SiKdpSlec0oVsGJHV-207">
          <mxGeometry y="104" width="210" height="26" as="geometry" />
        </mxCell>
        <mxCell id="7X8SiKdpSlec0oVsGJHV-211" value="" style="line;strokeWidth=1;fillColor=none;align=left;verticalAlign=middle;spacingTop=-1;spacingLeft=3;spacingRight=3;rotatable=0;labelPosition=right;points=[];portConstraint=eastwest;" vertex="1" parent="7X8SiKdpSlec0oVsGJHV-207">
          <mxGeometry y="130" width="210" height="8" as="geometry" />
        </mxCell>
        <mxCell id="7X8SiKdpSlec0oVsGJHV-212" value="+ Registro(String, String)" style="text;strokeColor=none;fillColor=none;align=left;verticalAlign=top;spacingLeft=4;spacingRight=4;overflow=hidden;rotatable=0;points=[[0,0.5],[1,0.5]];portConstraint=eastwest;fontStyle=4" vertex="1" parent="7X8SiKdpSlec0oVsGJHV-207">
          <mxGeometry y="138" width="210" height="26" as="geometry" />
        </mxCell>
        <mxCell id="7X8SiKdpSlec0oVsGJHV-213" value="+ getPatente(): String" style="text;strokeColor=none;fillColor=none;align=left;verticalAlign=top;spacingLeft=4;spacingRight=4;overflow=hidden;rotatable=0;points=[[0,0.5],[1,0.5]];portConstraint=eastwest;" vertex="1" parent="7X8SiKdpSlec0oVsGJHV-207">
          <mxGeometry y="164" width="210" height="26" as="geometry" />
        </mxCell>
        <mxCell id="7X8SiKdpSlec0oVsGJHV-215" value="+ getHoraDeInicio(): LocalDateTime" style="text;strokeColor=none;fillColor=none;align=left;verticalAlign=top;spacingLeft=4;spacingRight=4;overflow=hidden;rotatable=0;points=[[0,0.5],[1,0.5]];portConstraint=eastwest;" vertex="1" parent="7X8SiKdpSlec0oVsGJHV-207">
          <mxGeometry y="190" width="210" height="26" as="geometry" />
        </mxCell>
        <mxCell id="7X8SiKdpSlec0oVsGJHV-216" value="# calcularHoraDeFin(int): LocalDateTime" style="text;strokeColor=none;fillColor=none;align=left;verticalAlign=top;spacingLeft=4;spacingRight=4;overflow=hidden;rotatable=0;points=[[0,0.5],[1,0.5]];portConstraint=eastwest;" vertex="1" parent="7X8SiKdpSlec0oVsGJHV-207">
          <mxGeometry y="216" width="210" height="26" as="geometry" />
        </mxCell>
        <mxCell id="7X8SiKdpSlec0oVsGJHV-217" value="+ estaVigente(): boolean" style="text;strokeColor=none;fillColor=none;align=left;verticalAlign=top;spacingLeft=4;spacingRight=4;overflow=hidden;rotatable=0;points=[[0,0.5],[1,0.5]];portConstraint=eastwest;" vertex="1" parent="7X8SiKdpSlec0oVsGJHV-207">
          <mxGeometry y="242" width="210" height="26" as="geometry" />
        </mxCell>
        <mxCell id="7X8SiKdpSlec0oVsGJHV-218" value="# calcularCosto(): int" style="text;strokeColor=none;fillColor=none;align=left;verticalAlign=top;spacingLeft=4;spacingRight=4;overflow=hidden;rotatable=0;points=[[0,0.5],[1,0.5]];portConstraint=eastwest;fontStyle=2" vertex="1" parent="7X8SiKdpSlec0oVsGJHV-207">
          <mxGeometry y="268" width="210" height="26" as="geometry" />
        </mxCell>
        <mxCell id="7X8SiKdpSlec0oVsGJHV-219" value="+ getZona(): String" style="text;strokeColor=none;fillColor=none;align=left;verticalAlign=top;spacingLeft=4;spacingRight=4;overflow=hidden;rotatable=0;points=[[0,0.5],[1,0.5]];portConstraint=eastwest;" vertex="1" parent="7X8SiKdpSlec0oVsGJHV-207">
          <mxGeometry y="294" width="210" height="26" as="geometry" />
        </mxCell>
        <mxCell id="7X8SiKdpSlec0oVsGJHV-220" value="+ finalizar()" style="text;strokeColor=none;fillColor=none;align=left;verticalAlign=top;spacingLeft=4;spacingRight=4;overflow=hidden;rotatable=0;points=[[0,0.5],[1,0.5]];portConstraint=eastwest;" vertex="1" parent="7X8SiKdpSlec0oVsGJHV-207">
          <mxGeometry y="320" width="210" height="26" as="geometry" />
        </mxCell>
        <mxCell id="7X8SiKdpSlec0oVsGJHV-221" value="+ getHoraDeFin(): LocalDateTime" style="text;strokeColor=none;fillColor=none;align=left;verticalAlign=top;spacingLeft=4;spacingRight=4;overflow=hidden;rotatable=0;points=[[0,0.5],[1,0.5]];portConstraint=eastwest;fontStyle=2" vertex="1" parent="7X8SiKdpSlec0oVsGJHV-207">
          <mxGeometry y="346" width="210" height="26" as="geometry" />
        </mxCell>
        <mxCell id="7X8SiKdpSlec0oVsGJHV-222" value="# calcularDuracion(): int" style="text;strokeColor=none;fillColor=none;align=left;verticalAlign=top;spacingLeft=4;spacingRight=4;overflow=hidden;rotatable=0;points=[[0,0.5],[1,0.5]];portConstraint=eastwest;fontStyle=2" vertex="1" parent="7X8SiKdpSlec0oVsGJHV-207">
          <mxGeometry y="372" width="210" height="26" as="geometry" />
        </mxCell>
        <mxCell id="7X8SiKdpSlec0oVsGJHV-223" value="RegistroAplicacion" style="swimlane;fontStyle=1;align=center;verticalAlign=top;childLayout=stackLayout;horizontal=1;startSize=26;horizontalStack=0;resizeParent=1;resizeParentMax=0;resizeLast=0;collapsible=1;marginBottom=0;" vertex="1" parent="1">
          <mxGeometry x="560" y="1190" width="240" height="190" as="geometry" />
        </mxCell>
        <mxCell id="7X8SiKdpSlec0oVsGJHV-228" value="" style="line;strokeWidth=1;fillColor=none;align=left;verticalAlign=middle;spacingTop=-1;spacingLeft=3;spacingRight=3;rotatable=0;labelPosition=right;points=[];portConstraint=eastwest;" vertex="1" parent="7X8SiKdpSlec0oVsGJHV-223">
          <mxGeometry y="26" width="240" height="8" as="geometry" />
        </mxCell>
        <mxCell id="7X8SiKdpSlec0oVsGJHV-229" value="+ RegistroAplicacion(String, String, Celular)" style="text;strokeColor=none;fillColor=none;align=left;verticalAlign=top;spacingLeft=4;spacingRight=4;overflow=hidden;rotatable=0;points=[[0,0.5],[1,0.5]];portConstraint=eastwest;fontStyle=4" vertex="1" parent="7X8SiKdpSlec0oVsGJHV-223">
          <mxGeometry y="34" width="240" height="26" as="geometry" />
        </mxCell>
        <mxCell id="7X8SiKdpSlec0oVsGJHV-230" value="+ finalizar()" style="text;strokeColor=none;fillColor=none;align=left;verticalAlign=top;spacingLeft=4;spacingRight=4;overflow=hidden;rotatable=0;points=[[0,0.5],[1,0.5]];portConstraint=eastwest;" vertex="1" parent="7X8SiKdpSlec0oVsGJHV-223">
          <mxGeometry y="60" width="240" height="26" as="geometry" />
        </mxCell>
        <mxCell id="7X8SiKdpSlec0oVsGJHV-231" value="+ calcularDuracion(): int" style="text;strokeColor=none;fillColor=none;align=left;verticalAlign=top;spacingLeft=4;spacingRight=4;overflow=hidden;rotatable=0;points=[[0,0.5],[1,0.5]];portConstraint=eastwest;" vertex="1" parent="7X8SiKdpSlec0oVsGJHV-223">
          <mxGeometry y="86" width="240" height="26" as="geometry" />
        </mxCell>
        <mxCell id="7X8SiKdpSlec0oVsGJHV-232" value="+ calcularCosto(): int" style="text;strokeColor=none;fillColor=none;align=left;verticalAlign=top;spacingLeft=4;spacingRight=4;overflow=hidden;rotatable=0;points=[[0,0.5],[1,0.5]];portConstraint=eastwest;" vertex="1" parent="7X8SiKdpSlec0oVsGJHV-223">
          <mxGeometry y="112" width="240" height="26" as="geometry" />
        </mxCell>
        <mxCell id="7X8SiKdpSlec0oVsGJHV-233" value="+ getNumeroCelular(): String" style="text;strokeColor=none;fillColor=none;align=left;verticalAlign=top;spacingLeft=4;spacingRight=4;overflow=hidden;rotatable=0;points=[[0,0.5],[1,0.5]];portConstraint=eastwest;" vertex="1" parent="7X8SiKdpSlec0oVsGJHV-223">
          <mxGeometry y="138" width="240" height="26" as="geometry" />
        </mxCell>
        <mxCell id="7X8SiKdpSlec0oVsGJHV-234" value="+ getHoraDeFin(): LocalDateTime" style="text;strokeColor=none;fillColor=none;align=left;verticalAlign=top;spacingLeft=4;spacingRight=4;overflow=hidden;rotatable=0;points=[[0,0.5],[1,0.5]];portConstraint=eastwest;fontStyle=0" vertex="1" parent="7X8SiKdpSlec0oVsGJHV-223">
          <mxGeometry y="164" width="240" height="26" as="geometry" />
        </mxCell>
        <mxCell id="7X8SiKdpSlec0oVsGJHV-239" value="RegistroPuntoDeVenta" style="swimlane;fontStyle=1;align=center;verticalAlign=top;childLayout=stackLayout;horizontal=1;startSize=26;horizontalStack=0;resizeParent=1;resizeParentMax=0;resizeLast=0;collapsible=1;marginBottom=0;" vertex="1" parent="1">
          <mxGeometry x="37" y="1190" width="240" height="216" as="geometry" />
        </mxCell>
        <mxCell id="7X8SiKdpSlec0oVsGJHV-240" value="- horaDeFin: LocalDateTime" style="text;strokeColor=none;fillColor=none;align=left;verticalAlign=top;spacingLeft=4;spacingRight=4;overflow=hidden;rotatable=0;points=[[0,0.5],[1,0.5]];portConstraint=eastwest;fontStyle=0" vertex="1" parent="7X8SiKdpSlec0oVsGJHV-239">
          <mxGeometry y="26" width="240" height="26" as="geometry" />
        </mxCell>
        <mxCell id="7X8SiKdpSlec0oVsGJHV-248" value="- costo: int" style="text;strokeColor=none;fillColor=none;align=left;verticalAlign=top;spacingLeft=4;spacingRight=4;overflow=hidden;rotatable=0;points=[[0,0.5],[1,0.5]];portConstraint=eastwest;fontStyle=0" vertex="1" parent="7X8SiKdpSlec0oVsGJHV-239">
          <mxGeometry y="52" width="240" height="26" as="geometry" />
        </mxCell>
        <mxCell id="7X8SiKdpSlec0oVsGJHV-241" value="" style="line;strokeWidth=1;fillColor=none;align=left;verticalAlign=middle;spacingTop=-1;spacingLeft=3;spacingRight=3;rotatable=0;labelPosition=right;points=[];portConstraint=eastwest;" vertex="1" parent="7X8SiKdpSlec0oVsGJHV-239">
          <mxGeometry y="78" width="240" height="8" as="geometry" />
        </mxCell>
        <mxCell id="7X8SiKdpSlec0oVsGJHV-242" value="+ RegistroPuntoDeVenta(String, String, int)" style="text;strokeColor=none;fillColor=none;align=left;verticalAlign=top;spacingLeft=4;spacingRight=4;overflow=hidden;rotatable=0;points=[[0,0.5],[1,0.5]];portConstraint=eastwest;fontStyle=4" vertex="1" parent="7X8SiKdpSlec0oVsGJHV-239">
          <mxGeometry y="86" width="240" height="26" as="geometry" />
        </mxCell>
        <mxCell id="7X8SiKdpSlec0oVsGJHV-243" value="# setHoraDeFin(int)" style="text;strokeColor=none;fillColor=none;align=left;verticalAlign=top;spacingLeft=4;spacingRight=4;overflow=hidden;rotatable=0;points=[[0,0.5],[1,0.5]];portConstraint=eastwest;" vertex="1" parent="7X8SiKdpSlec0oVsGJHV-239">
          <mxGeometry y="112" width="240" height="26" as="geometry" />
        </mxCell>
        <mxCell id="7X8SiKdpSlec0oVsGJHV-244" value="+ getHoraDeFin(): LocalDateTime" style="text;strokeColor=none;fillColor=none;align=left;verticalAlign=top;spacingLeft=4;spacingRight=4;overflow=hidden;rotatable=0;points=[[0,0.5],[1,0.5]];portConstraint=eastwest;" vertex="1" parent="7X8SiKdpSlec0oVsGJHV-239">
          <mxGeometry y="138" width="240" height="26" as="geometry" />
        </mxCell>
        <mxCell id="7X8SiKdpSlec0oVsGJHV-245" value="# calcularCosto(): int" style="text;strokeColor=none;fillColor=none;align=left;verticalAlign=top;spacingLeft=4;spacingRight=4;overflow=hidden;rotatable=0;points=[[0,0.5],[1,0.5]];portConstraint=eastwest;" vertex="1" parent="7X8SiKdpSlec0oVsGJHV-239">
          <mxGeometry y="164" width="240" height="26" as="geometry" />
        </mxCell>
        <mxCell id="7X8SiKdpSlec0oVsGJHV-246" value="# calcularDuracion(): int" style="text;strokeColor=none;fillColor=none;align=left;verticalAlign=top;spacingLeft=4;spacingRight=4;overflow=hidden;rotatable=0;points=[[0,0.5],[1,0.5]];portConstraint=eastwest;" vertex="1" parent="7X8SiKdpSlec0oVsGJHV-239">
          <mxGeometry y="190" width="240" height="26" as="geometry" />
        </mxCell>
        <mxCell id="7X8SiKdpSlec0oVsGJHV-250" value="" style="endArrow=block;dashed=1;endFill=0;endSize=12;html=1;fontColor=#000000;entryX=0;entryY=0.5;entryDx=0;entryDy=0;exitX=0.464;exitY=-0.01;exitDx=0;exitDy=0;exitPerimeter=0;" edge="1" parent="1" source="7X8SiKdpSlec0oVsGJHV-104" target="7X8SiKdpSlec0oVsGJHV-196">
          <mxGeometry width="160" relative="1" as="geometry">
            <mxPoint x="280" y="100.17" as="sourcePoint" />
            <mxPoint x="440" y="100.17" as="targetPoint" />
          </mxGeometry>
        </mxCell>
        <mxCell id="7X8SiKdpSlec0oVsGJHV-251" value="extends" style="text;align=center;fontStyle=0;verticalAlign=middle;spacingLeft=3;spacingRight=3;strokeColor=none;rotatable=0;points=[[0,0.5],[1,0.5]];portConstraint=eastwest;html=1;" vertex="1" parent="1">
          <mxGeometry x="390" y="178" width="80" height="26" as="geometry" />
        </mxCell>
        <mxCell id="7X8SiKdpSlec0oVsGJHV-253" value="" style="endArrow=block;dashed=1;endFill=0;endSize=12;html=1;fontColor=#000000;exitX=0.5;exitY=0;exitDx=0;exitDy=0;entryX=0.405;entryY=1.115;entryDx=0;entryDy=0;entryPerimeter=0;" edge="1" parent="1" source="7X8SiKdpSlec0oVsGJHV-77" target="7X8SiKdpSlec0oVsGJHV-196">
          <mxGeometry width="160" relative="1" as="geometry">
            <mxPoint x="234.55999999999995" y="256.79999999999995" as="sourcePoint" />
            <mxPoint x="650" y="180" as="targetPoint" />
          </mxGeometry>
        </mxCell>
        <mxCell id="7X8SiKdpSlec0oVsGJHV-254" value="extends" style="text;align=center;fontStyle=0;verticalAlign=middle;spacingLeft=3;spacingRight=3;strokeColor=none;rotatable=0;points=[[0,0.5],[1,0.5]];portConstraint=eastwest;html=1;" vertex="1" parent="1">
          <mxGeometry x="625" y="190" width="80" height="26" as="geometry" />
        </mxCell>
        <mxCell id="7X8SiKdpSlec0oVsGJHV-255" value="registros" style="endArrow=block;endFill=1;html=1;edgeStyle=orthogonalEdgeStyle;align=left;verticalAlign=top;fontColor=#000000;exitX=0.35;exitY=0.973;exitDx=0;exitDy=0;exitPerimeter=0;entryX=0.322;entryY=-0.006;entryDx=0;entryDy=0;entryPerimeter=0;" edge="1" parent="1" source="7X8SiKdpSlec0oVsGJHV-118" target="7X8SiKdpSlec0oVsGJHV-207">
          <mxGeometry x="0.1165" y="35" relative="1" as="geometry">
            <mxPoint x="188" y="626" as="sourcePoint" />
            <mxPoint x="330" y="690" as="targetPoint" />
            <mxPoint as="offset" />
          </mxGeometry>
        </mxCell>
        <mxCell id="7X8SiKdpSlec0oVsGJHV-256" value="1" style="edgeLabel;resizable=0;html=1;align=left;verticalAlign=bottom;" connectable="0" vertex="1" parent="7X8SiKdpSlec0oVsGJHV-255">
          <mxGeometry x="-1" relative="1" as="geometry">
            <mxPoint x="8.5" y="20.700000000000003" as="offset" />
          </mxGeometry>
        </mxCell>
        <mxCell id="7X8SiKdpSlec0oVsGJHV-257" value="*" style="edgeLabel;resizable=0;html=1;align=left;verticalAlign=bottom;" connectable="0" vertex="1" parent="1">
          <mxGeometry x="210" y="599.998" as="geometry">
            <mxPoint x="136" y="105" as="offset" />
          </mxGeometry>
        </mxCell>
        <mxCell id="7X8SiKdpSlec0oVsGJHV-259" value="centroCelulares" style="endArrow=block;endFill=1;html=1;edgeStyle=orthogonalEdgeStyle;align=left;verticalAlign=top;fontColor=#000000;exitX=0.004;exitY=0.114;exitDx=0;exitDy=0;exitPerimeter=0;entryX=1;entryY=0.679;entryDx=0;entryDy=0;entryPerimeter=0;" edge="1" parent="1" source="7X8SiKdpSlec0oVsGJHV-24" target="7X8SiKdpSlec0oVsGJHV-79">
          <mxGeometry x="0.2649" relative="1" as="geometry">
            <mxPoint x="969.9999999999998" y="320" as="sourcePoint" />
            <mxPoint x="800" y="319" as="targetPoint" />
            <Array as="points">
              <mxPoint x="777" y="320" />
            </Array>
            <mxPoint as="offset" />
          </mxGeometry>
        </mxCell>
        <mxCell id="7X8SiKdpSlec0oVsGJHV-260" value="1" style="edgeLabel;resizable=0;html=1;align=left;verticalAlign=bottom;" connectable="0" vertex="1" parent="7X8SiKdpSlec0oVsGJHV-259">
          <mxGeometry x="-1" relative="1" as="geometry">
            <mxPoint x="-15.68" y="-3.960000000000001" as="offset" />
          </mxGeometry>
        </mxCell>
        <mxCell id="7X8SiKdpSlec0oVsGJHV-261" value="1" style="edgeLabel;resizable=0;html=1;align=left;verticalAlign=bottom;" connectable="0" vertex="1" parent="1">
          <mxGeometry x="782.4999999999998" y="312.004" as="geometry" />
        </mxCell>
        <mxCell id="7X8SiKdpSlec0oVsGJHV-262" value="" style="endArrow=block;dashed=1;endFill=0;endSize=12;html=1;fontColor=#000000;entryX=0.487;entryY=0.989;entryDx=0;entryDy=0;entryPerimeter=0;exitX=0.5;exitY=0;exitDx=0;exitDy=0;" edge="1" parent="1" source="7X8SiKdpSlec0oVsGJHV-200" target="7X8SiKdpSlec0oVsGJHV-24">
          <mxGeometry width="160" relative="1" as="geometry">
            <mxPoint x="890" y="460" as="sourcePoint" />
            <mxPoint x="1050" y="460" as="targetPoint" />
          </mxGeometry>
        </mxCell>
        <mxCell id="7X8SiKdpSlec0oVsGJHV-263" value="extends" style="text;align=center;fontStyle=0;verticalAlign=middle;spacingLeft=3;spacingRight=3;strokeColor=none;rotatable=0;points=[[0,0.5],[1,0.5]];portConstraint=eastwest;html=1;" vertex="1" parent="1">
          <mxGeometry x="1060" y="397" width="80" height="26" as="geometry" />
        </mxCell>
        <mxCell id="7X8SiKdpSlec0oVsGJHV-264" value="centroRegistros" style="endArrow=block;endFill=1;html=1;edgeStyle=orthogonalEdgeStyle;align=left;verticalAlign=top;fontColor=#000000;exitX=-0.005;exitY=0.923;exitDx=0;exitDy=0;exitPerimeter=0;entryX=1;entryY=0.5;entryDx=0;entryDy=0;" edge="1" parent="1" source="7X8SiKdpSlec0oVsGJHV-204" target="7X8SiKdpSlec0oVsGJHV-114">
          <mxGeometry x="-0.0436" relative="1" as="geometry">
            <mxPoint x="540" y="470" as="sourcePoint" />
            <mxPoint x="700" y="470" as="targetPoint" />
            <Array as="points">
              <mxPoint x="900" y="546" />
              <mxPoint x="900" y="600" />
              <mxPoint x="420" y="600" />
              <mxPoint x="420" y="453" />
            </Array>
            <mxPoint as="offset" />
          </mxGeometry>
        </mxCell>
        <mxCell id="7X8SiKdpSlec0oVsGJHV-265" value="1" style="edgeLabel;resizable=0;html=1;align=left;verticalAlign=bottom;" connectable="0" vertex="1" parent="7X8SiKdpSlec0oVsGJHV-264">
          <mxGeometry x="-1" relative="1" as="geometry">
            <mxPoint x="-19" y="-2" as="offset" />
          </mxGeometry>
        </mxCell>
        <mxCell id="7X8SiKdpSlec0oVsGJHV-266" value="1" style="edgeLabel;resizable=0;html=1;align=left;verticalAlign=bottom;" connectable="0" vertex="1" parent="1">
          <mxGeometry x="889.9999999999998" y="509.9979999999998" as="geometry">
            <mxPoint x="-495" y="-59" as="offset" />
          </mxGeometry>
        </mxCell>
        <mxCell id="7X8SiKdpSlec0oVsGJHV-267" value="infracciones" style="endArrow=block;endFill=1;html=1;edgeStyle=orthogonalEdgeStyle;align=left;verticalAlign=top;fontColor=#000000;entryX=0;entryY=0.5;entryDx=0;entryDy=0;exitX=0.998;exitY=0.147;exitDx=0;exitDy=0;exitPerimeter=0;" edge="1" parent="1" source="7X8SiKdpSlec0oVsGJHV-96" target="7X8SiKdpSlec0oVsGJHV-141">
          <mxGeometry x="-0.2661" relative="1" as="geometry">
            <mxPoint x="1210" y="131" as="sourcePoint" />
            <mxPoint x="1330" y="122" as="targetPoint" />
            <Array as="points">
              <mxPoint x="1189" y="131" />
            </Array>
            <mxPoint as="offset" />
          </mxGeometry>
        </mxCell>
        <mxCell id="7X8SiKdpSlec0oVsGJHV-268" value="1" style="edgeLabel;resizable=0;html=1;align=left;verticalAlign=bottom;" connectable="0" vertex="1" parent="7X8SiKdpSlec0oVsGJHV-267">
          <mxGeometry x="-1" relative="1" as="geometry" />
        </mxCell>
        <mxCell id="7X8SiKdpSlec0oVsGJHV-269" value="*" style="edgeLabel;resizable=0;html=1;align=left;verticalAlign=bottom;" connectable="0" vertex="1" parent="1">
          <mxGeometry x="1210" y="148" as="geometry">
            <mxPoint x="127" y="-17" as="offset" />
          </mxGeometry>
        </mxCell>
        <mxCell id="7X8SiKdpSlec0oVsGJHV-270" value="inspector" style="endArrow=block;endFill=1;html=1;edgeStyle=orthogonalEdgeStyle;align=left;verticalAlign=top;fontColor=#000000;entryX=0.5;entryY=0;entryDx=0;entryDy=0;exitX=0.505;exitY=1.044;exitDx=0;exitDy=0;exitPerimeter=0;" edge="1" parent="1" source="7X8SiKdpSlec0oVsGJHV-148" target="7X8SiKdpSlec0oVsGJHV-71">
          <mxGeometry x="-0.3701" relative="1" as="geometry">
            <mxPoint x="1500" y="290" as="sourcePoint" />
            <mxPoint x="1430" y="360" as="targetPoint" />
            <Array as="points">
              <mxPoint x="1500" y="283" />
            </Array>
            <mxPoint as="offset" />
          </mxGeometry>
        </mxCell>
        <mxCell id="7X8SiKdpSlec0oVsGJHV-271" value="1" style="edgeLabel;resizable=0;html=1;align=left;verticalAlign=bottom;" connectable="0" vertex="1" parent="7X8SiKdpSlec0oVsGJHV-270">
          <mxGeometry x="-1" relative="1" as="geometry">
            <mxPoint x="-0.4" y="19.58" as="offset" />
          </mxGeometry>
        </mxCell>
        <mxCell id="7X8SiKdpSlec0oVsGJHV-272" value="1" style="edgeLabel;resizable=0;html=1;align=left;verticalAlign=bottom;" connectable="0" vertex="1" parent="1">
          <mxGeometry x="1500" y="359.996" as="geometry" />
        </mxCell>
        <mxCell id="7X8SiKdpSlec0oVsGJHV-273" value="observables" style="endArrow=block;endFill=1;html=1;edgeStyle=orthogonalEdgeStyle;align=left;verticalAlign=top;fontColor=#000000;exitX=-0.021;exitY=-0.115;exitDx=0;exitDy=0;exitPerimeter=0;entryX=1.023;entryY=0.115;entryDx=0;entryDy=0;entryPerimeter=0;" edge="1" parent="1" source="7X8SiKdpSlec0oVsGJHV-195" target="7X8SiKdpSlec0oVsGJHV-199">
          <mxGeometry x="0.4454" y="-27" relative="1" as="geometry">
            <mxPoint x="530" y="150" as="sourcePoint" />
            <mxPoint x="690" y="150" as="targetPoint" />
            <mxPoint as="offset" />
          </mxGeometry>
        </mxCell>
        <mxCell id="7X8SiKdpSlec0oVsGJHV-274" value="1" style="edgeLabel;resizable=0;html=1;align=left;verticalAlign=bottom;" connectable="0" vertex="1" parent="7X8SiKdpSlec0oVsGJHV-273">
          <mxGeometry x="-1" relative="1" as="geometry">
            <mxPoint x="-16.01" y="-3.01" as="offset" />
          </mxGeometry>
        </mxCell>
        <mxCell id="7X8SiKdpSlec0oVsGJHV-275" value="*" style="edgeLabel;resizable=0;html=1;align=left;verticalAlign=bottom;" connectable="0" vertex="1" parent="1">
          <mxGeometry x="440" y="64" as="geometry" />
        </mxCell>
        <mxCell id="7X8SiKdpSlec0oVsGJHV-276" value="inspector" style="endArrow=block;endFill=1;html=1;edgeStyle=orthogonalEdgeStyle;align=left;verticalAlign=top;fontColor=#000000;entryX=0.25;entryY=0;entryDx=0;entryDy=0;exitX=1.017;exitY=0.295;exitDx=0;exitDy=0;exitPerimeter=0;" edge="1" parent="1" source="7X8SiKdpSlec0oVsGJHV-51" target="7X8SiKdpSlec0oVsGJHV-71">
          <mxGeometry x="-0.506" relative="1" as="geometry">
            <mxPoint x="1410" y="328" as="sourcePoint" />
            <mxPoint x="1460" y="327.58" as="targetPoint" />
            <mxPoint as="offset" />
          </mxGeometry>
        </mxCell>
        <mxCell id="7X8SiKdpSlec0oVsGJHV-277" value="1" style="edgeLabel;resizable=0;html=1;align=left;verticalAlign=bottom;" connectable="0" vertex="1" parent="7X8SiKdpSlec0oVsGJHV-276">
          <mxGeometry x="-1" relative="1" as="geometry" />
        </mxCell>
        <mxCell id="7X8SiKdpSlec0oVsGJHV-278" value="1" style="edgeLabel;resizable=0;html=1;align=left;verticalAlign=bottom;" connectable="0" vertex="1" parent="1">
          <mxGeometry x="1450.0010000000002" y="359.99999999999994" as="geometry" />
        </mxCell>
        <mxCell id="7X8SiKdpSlec0oVsGJHV-279" value="centroInfracciones" style="endArrow=block;endFill=1;html=1;edgeStyle=orthogonalEdgeStyle;align=left;verticalAlign=top;fontColor=#000000;entryX=0.483;entryY=1.077;entryDx=0;entryDy=0;entryPerimeter=0;exitX=0.5;exitY=0;exitDx=0;exitDy=0;" edge="1" parent="1" source="7X8SiKdpSlec0oVsGJHV-46" target="7X8SiKdpSlec0oVsGJHV-97">
          <mxGeometry x="0.163" relative="1" as="geometry">
            <mxPoint x="1240" y="240" as="sourcePoint" />
            <mxPoint x="1400" y="240" as="targetPoint" />
            <Array as="points">
              <mxPoint x="1272" y="210" />
              <mxPoint x="1040" y="210" />
            </Array>
            <mxPoint as="offset" />
          </mxGeometry>
        </mxCell>
        <mxCell id="7X8SiKdpSlec0oVsGJHV-280" value="1" style="edgeLabel;resizable=0;html=1;align=left;verticalAlign=bottom;" connectable="0" vertex="1" parent="7X8SiKdpSlec0oVsGJHV-279">
          <mxGeometry x="-1" relative="1" as="geometry" />
        </mxCell>
        <mxCell id="7X8SiKdpSlec0oVsGJHV-281" value="1" style="edgeLabel;resizable=0;html=1;align=left;verticalAlign=bottom;" connectable="0" vertex="1" parent="1">
          <mxGeometry x="1050" y="200" as="geometry" />
        </mxCell>
        <mxCell id="7X8SiKdpSlec0oVsGJHV-282" value="centroRegistros" style="endArrow=block;endFill=1;html=1;edgeStyle=orthogonalEdgeStyle;align=left;verticalAlign=top;fontColor=#000000;exitX=-0.016;exitY=0.058;exitDx=0;exitDy=0;exitPerimeter=0;entryX=0.793;entryY=0;entryDx=0;entryDy=0;entryPerimeter=0;" edge="1" parent="1" source="7X8SiKdpSlec0oVsGJHV-46" target="7X8SiKdpSlec0oVsGJHV-104">
          <mxGeometry x="-0.1378" y="-20" relative="1" as="geometry">
            <mxPoint x="1000" y="240" as="sourcePoint" />
            <mxPoint x="780" y="190" as="targetPoint" />
            <Array as="points">
              <mxPoint x="1020" y="267" />
              <mxPoint x="1020" y="230" />
              <mxPoint x="320" y="230" />
            </Array>
            <mxPoint as="offset" />
          </mxGeometry>
        </mxCell>
        <mxCell id="7X8SiKdpSlec0oVsGJHV-283" value="1" style="edgeLabel;resizable=0;html=1;align=left;verticalAlign=bottom;" connectable="0" vertex="1" parent="7X8SiKdpSlec0oVsGJHV-282">
          <mxGeometry x="-1" relative="1" as="geometry">
            <mxPoint x="-27.07" y="-8" as="offset" />
          </mxGeometry>
        </mxCell>
        <mxCell id="7X8SiKdpSlec0oVsGJHV-285" value="1" style="edgeLabel;resizable=0;html=1;align=left;verticalAlign=bottom;" connectable="0" vertex="1" parent="1">
          <mxGeometry x="350.0020000000002" y="230.00400000000002" as="geometry" />
        </mxCell>
        <mxCell id="7X8SiKdpSlec0oVsGJHV-286" value="+ getZona(): String" style="text;fillColor=none;align=left;verticalAlign=top;spacingLeft=4;spacingRight=4;overflow=hidden;rotatable=0;points=[[0,0.5],[1,0.5]];portConstraint=eastwest;labelBorderColor=none;labelBackgroundColor=none;strokeColor=#000000;" vertex="1" parent="1">
          <mxGeometry x="950" y="1188" width="130" height="26" as="geometry" />
        </mxCell>
        <mxCell id="7X8SiKdpSlec0oVsGJHV-287" value="" style="endArrow=block;dashed=1;endFill=0;endSize=12;html=1;fontColor=#000000;entryX=0;entryY=0.5;entryDx=0;entryDy=0;exitX=0.354;exitY=-0.007;exitDx=0;exitDy=0;exitPerimeter=0;" edge="1" parent="1" source="7X8SiKdpSlec0oVsGJHV-239" target="7X8SiKdpSlec0oVsGJHV-218">
          <mxGeometry width="160" relative="1" as="geometry">
            <mxPoint x="110" y="1150" as="sourcePoint" />
            <mxPoint x="170" y="1030" as="targetPoint" />
          </mxGeometry>
        </mxCell>
        <mxCell id="7X8SiKdpSlec0oVsGJHV-288" value="" style="endArrow=block;dashed=1;endFill=0;endSize=12;html=1;fontColor=#000000;entryX=1;entryY=0.5;entryDx=0;entryDy=0;exitX=0.5;exitY=0;exitDx=0;exitDy=0;" edge="1" parent="1" source="7X8SiKdpSlec0oVsGJHV-223" target="7X8SiKdpSlec0oVsGJHV-219">
          <mxGeometry width="160" relative="1" as="geometry">
            <mxPoint x="672" y="1177.488" as="sourcePoint" />
            <mxPoint x="827.04" y="989.9999999999998" as="targetPoint" />
          </mxGeometry>
        </mxCell>
        <mxCell id="7X8SiKdpSlec0oVsGJHV-290" value="extends" style="text;html=1;align=center;verticalAlign=middle;resizable=0;points=[];autosize=1;" vertex="1" parent="1">
          <mxGeometry x="127" y="1073" width="60" height="20" as="geometry" />
        </mxCell>
        <mxCell id="7X8SiKdpSlec0oVsGJHV-291" value="extends" style="text;html=1;align=center;verticalAlign=middle;resizable=0;points=[];autosize=1;" vertex="1" parent="1">
          <mxGeometry x="530" y="1118" width="60" height="20" as="geometry" />
        </mxCell>
        <mxCell id="7X8SiKdpSlec0oVsGJHV-292" value="centroCelulares" style="endArrow=block;endFill=1;html=1;edgeStyle=orthogonalEdgeStyle;align=left;verticalAlign=top;fontColor=#000000;entryX=0.328;entryY=1;entryDx=0;entryDy=0;entryPerimeter=0;exitX=0.75;exitY=0;exitDx=0;exitDy=0;" edge="1" parent="1" source="7X8SiKdpSlec0oVsGJHV-223" target="7X8SiKdpSlec0oVsGJHV-83">
          <mxGeometry x="-0.2141" y="-8" relative="1" as="geometry">
            <mxPoint x="770" y="1120" as="sourcePoint" />
            <mxPoint x="580" y="650" as="targetPoint" />
            <Array as="points">
              <mxPoint x="740" y="1070" />
              <mxPoint x="582" y="1070" />
            </Array>
            <mxPoint as="offset" />
          </mxGeometry>
        </mxCell>
        <mxCell id="7X8SiKdpSlec0oVsGJHV-293" value="1" style="edgeLabel;resizable=0;html=1;align=left;verticalAlign=bottom;" connectable="0" vertex="1" parent="7X8SiKdpSlec0oVsGJHV-292">
          <mxGeometry x="-1" relative="1" as="geometry" />
        </mxCell>
        <mxCell id="7X8SiKdpSlec0oVsGJHV-294" value="1" style="text;html=1;align=center;verticalAlign=middle;resizable=0;points=[];autosize=1;" vertex="1" parent="1">
          <mxGeometry x="580" y="575" width="20" height="20" as="geometry" />
        </mxCell>
        <mxCell id="7X8SiKdpSlec0oVsGJHV-295" value="celular" style="endArrow=block;endFill=1;html=1;edgeStyle=orthogonalEdgeStyle;align=left;verticalAlign=top;fontColor=#000000;entryX=0.231;entryY=1.018;entryDx=0;entryDy=0;entryPerimeter=0;exitX=1.01;exitY=0.096;exitDx=0;exitDy=0;exitPerimeter=0;" edge="1" parent="1" source="7X8SiKdpSlec0oVsGJHV-223" target="7X8SiKdpSlec0oVsGJHV-18">
          <mxGeometry x="-0.5979" y="30" relative="1" as="geometry">
            <mxPoint x="830" y="1210" as="sourcePoint" />
            <mxPoint x="900" y="1050" as="targetPoint" />
            <Array as="points">
              <mxPoint x="802" y="1210" />
              <mxPoint x="912" y="1210" />
              <mxPoint x="912" y="1027" />
            </Array>
            <mxPoint as="offset" />
          </mxGeometry>
        </mxCell>
        <mxCell id="7X8SiKdpSlec0oVsGJHV-296" value="1" style="edgeLabel;resizable=0;html=1;align=left;verticalAlign=bottom;" connectable="0" vertex="1" parent="7X8SiKdpSlec0oVsGJHV-295">
          <mxGeometry x="-1" relative="1" as="geometry" />
        </mxCell>
        <mxCell id="7X8SiKdpSlec0oVsGJHV-305" value="1" style="edgeLabel;resizable=0;html=1;align=left;verticalAlign=bottom;" connectable="0" vertex="1" parent="1">
          <mxGeometry x="899.9999999999999" y="1050" as="geometry" />
        </mxCell>
        <mxCell id="7X8SiKdpSlec0oVsGJHV-306" value="centroCelulares" style="endArrow=block;endFill=1;html=1;edgeStyle=orthogonalEdgeStyle;align=left;verticalAlign=top;fontColor=#000000;exitX=-0.011;exitY=0.035;exitDx=0;exitDy=0;exitPerimeter=0;entryX=0.836;entryY=1.106;entryDx=0;entryDy=0;entryPerimeter=0;" edge="1" parent="1" source="7X8SiKdpSlec0oVsGJHV-12" target="7X8SiKdpSlec0oVsGJHV-83">
          <mxGeometry x="-0.0966" y="-32" relative="1" as="geometry">
            <mxPoint x="760" y="690" as="sourcePoint" />
            <mxPoint x="730" y="590" as="targetPoint" />
            <Array as="points">
              <mxPoint x="729" y="692" />
            </Array>
            <mxPoint as="offset" />
          </mxGeometry>
        </mxCell>
        <mxCell id="7X8SiKdpSlec0oVsGJHV-307" value="1" style="edgeLabel;resizable=0;html=1;align=left;verticalAlign=bottom;" connectable="0" vertex="1" parent="7X8SiKdpSlec0oVsGJHV-306">
          <mxGeometry x="-1" relative="1" as="geometry">
            <mxPoint x="-20.03" y="-2.1099999999999994" as="offset" />
          </mxGeometry>
        </mxCell>
        <mxCell id="7X8SiKdpSlec0oVsGJHV-308" value="1" style="edgeLabel;resizable=0;html=1;align=left;verticalAlign=bottom;" connectable="0" vertex="1" parent="1">
          <mxGeometry x="729.9999999999995" y="595" as="geometry" />
        </mxCell>
        <mxCell id="7X8SiKdpSlec0oVsGJHV-309" value="centroZonas" style="endArrow=block;endFill=1;html=1;edgeStyle=orthogonalEdgeStyle;align=left;verticalAlign=top;fontColor=#000000;exitX=0.594;exitY=-0.009;exitDx=0;exitDy=0;exitPerimeter=0;" edge="1" parent="1" source="7X8SiKdpSlec0oVsGJHV-12">
          <mxGeometry x="-0.5892" relative="1" as="geometry">
            <mxPoint x="1203" y="630" as="sourcePoint" />
            <mxPoint x="1720" y="284" as="targetPoint" />
            <Array as="points">
              <mxPoint x="1010" y="630" />
              <mxPoint x="1720" y="630" />
              <mxPoint x="1720" y="284" />
            </Array>
            <mxPoint as="offset" />
          </mxGeometry>
        </mxCell>
        <mxCell id="7X8SiKdpSlec0oVsGJHV-310" value="1" style="edgeLabel;resizable=0;html=1;align=left;verticalAlign=bottom;" connectable="0" vertex="1" parent="7X8SiKdpSlec0oVsGJHV-309">
          <mxGeometry x="-1" relative="1" as="geometry" />
        </mxCell>
        <mxCell id="7X8SiKdpSlec0oVsGJHV-311" value="1" style="edgeLabel;resizable=0;html=1;align=left;verticalAlign=bottom;" connectable="0" vertex="1" parent="1">
          <mxGeometry x="1360" y="439.9960000000002" as="geometry">
            <mxPoint x="374" y="-132" as="offset" />
          </mxGeometry>
        </mxCell>
        <mxCell id="7X8SiKdpSlec0oVsGJHV-312" value="aplicacionCliente" style="endArrow=block;endFill=1;html=1;edgeStyle=orthogonalEdgeStyle;align=left;verticalAlign=top;fontColor=#000000;entryX=0;entryY=0.5;entryDx=0;entryDy=0;exitX=1.001;exitY=0.25;exitDx=0;exitDy=0;exitPerimeter=0;" edge="1" parent="1" source="7X8SiKdpSlec0oVsGJHV-17">
          <mxGeometry x="-0.2712" relative="1" as="geometry">
            <mxPoint x="1140" y="780" as="sourcePoint" />
            <mxPoint x="1369.9999999999998" y="784" as="targetPoint" />
            <Array as="points">
              <mxPoint x="1130" y="786" />
              <mxPoint x="1130" y="784" />
            </Array>
            <mxPoint as="offset" />
          </mxGeometry>
        </mxCell>
        <mxCell id="7X8SiKdpSlec0oVsGJHV-313" value="1" style="edgeLabel;resizable=0;html=1;align=left;verticalAlign=bottom;" connectable="0" vertex="1" parent="7X8SiKdpSlec0oVsGJHV-312">
          <mxGeometry x="-1" relative="1" as="geometry" />
        </mxCell>
        <mxCell id="7X8SiKdpSlec0oVsGJHV-314" value="1" style="edgeLabel;resizable=0;html=1;align=left;verticalAlign=bottom;" connectable="0" vertex="1" parent="1">
          <mxGeometry x="1345" y="780" as="geometry" />
        </mxCell>
        <mxCell id="7X8SiKdpSlec0oVsGJHV-315" value="gps" style="endArrow=block;endFill=1;html=1;edgeStyle=orthogonalEdgeStyle;align=left;verticalAlign=top;fontColor=#000000;exitX=0.637;exitY=1.154;exitDx=0;exitDy=0;exitPerimeter=0;entryX=0.5;entryY=0;entryDx=0;entryDy=0;" edge="1" parent="1" source="7X8SiKdpSlec0oVsGJHV-18" target="7X8SiKdpSlec0oVsGJHV-136">
          <mxGeometry x="-0.0957" relative="1" as="geometry">
            <mxPoint x="910" y="1080" as="sourcePoint" />
            <mxPoint x="1070" y="1080" as="targetPoint" />
            <Array as="points">
              <mxPoint x="1022" y="1082" />
              <mxPoint x="1015" y="1082" />
            </Array>
            <mxPoint as="offset" />
          </mxGeometry>
        </mxCell>
        <mxCell id="7X8SiKdpSlec0oVsGJHV-316" value="1" style="edgeLabel;resizable=0;html=1;align=left;verticalAlign=bottom;" connectable="0" vertex="1" parent="7X8SiKdpSlec0oVsGJHV-315">
          <mxGeometry x="-1" relative="1" as="geometry">
            <mxPoint x="8.01" y="22" as="offset" />
          </mxGeometry>
        </mxCell>
        <mxCell id="7X8SiKdpSlec0oVsGJHV-317" value="1" style="edgeLabel;resizable=0;html=1;align=left;verticalAlign=bottom;" connectable="0" vertex="1" parent="1">
          <mxGeometry x="1045" y="1073.004" as="geometry">
            <mxPoint x="-25" y="63" as="offset" />
          </mxGeometry>
        </mxCell>
        <mxCell id="7X8SiKdpSlec0oVsGJHV-318" value="celularReal" style="endArrow=block;endFill=1;html=1;edgeStyle=orthogonalEdgeStyle;align=left;verticalAlign=top;fontColor=#000000;exitX=1;exitY=0.731;exitDx=0;exitDy=0;exitPerimeter=0;entryX=0.308;entryY=-0.022;entryDx=0;entryDy=0;entryPerimeter=0;" edge="1" parent="1" source="7X8SiKdpSlec0oVsGJHV-18" target="7X8SiKdpSlec0oVsGJHV-66">
          <mxGeometry x="-0.0957" relative="1" as="geometry">
            <mxPoint x="1167.0199999999998" y="1019.0039999999999" as="sourcePoint" />
            <mxPoint x="1160.03" y="1127" as="targetPoint" />
            <Array as="points">
              <mxPoint x="1167" y="1019" />
              <mxPoint x="1167" y="1071" />
              <mxPoint x="1160" y="1071" />
              <mxPoint x="1160" y="1130" />
              <mxPoint x="1158" y="1130" />
            </Array>
            <mxPoint as="offset" />
          </mxGeometry>
        </mxCell>
        <mxCell id="7X8SiKdpSlec0oVsGJHV-319" value="1" style="edgeLabel;resizable=0;html=1;align=left;verticalAlign=bottom;" connectable="0" vertex="1" parent="7X8SiKdpSlec0oVsGJHV-318">
          <mxGeometry x="-1" relative="1" as="geometry">
            <mxPoint x="8.01" y="22" as="offset" />
          </mxGeometry>
        </mxCell>
        <mxCell id="7X8SiKdpSlec0oVsGJHV-320" value="1" style="edgeLabel;resizable=0;html=1;align=left;verticalAlign=bottom;" connectable="0" vertex="1" parent="1">
          <mxGeometry x="1140" y="1127.996" as="geometry" />
        </mxCell>
        <mxCell id="7X8SiKdpSlec0oVsGJHV-321" value="centroRegistros" style="endArrow=block;endFill=1;html=1;edgeStyle=orthogonalEdgeStyle;align=left;verticalAlign=top;fontColor=#000000;exitX=0.183;exitY=-0.004;exitDx=0;exitDy=0;exitPerimeter=0;entryX=0.642;entryY=1.115;entryDx=0;entryDy=0;entryPerimeter=0;" edge="1" parent="1" source="7X8SiKdpSlec0oVsGJHV-5" target="7X8SiKdpSlec0oVsGJHV-118">
          <mxGeometry x="-0.5976" relative="1" as="geometry">
            <mxPoint x="1180" y="680" as="sourcePoint" />
            <mxPoint x="940" y="640" as="targetPoint" />
            <Array as="points">
              <mxPoint x="1418" y="660" />
              <mxPoint x="276" y="660" />
            </Array>
            <mxPoint as="offset" />
          </mxGeometry>
        </mxCell>
        <mxCell id="7X8SiKdpSlec0oVsGJHV-322" value="1" style="edgeLabel;resizable=0;html=1;align=left;verticalAlign=bottom;" connectable="0" vertex="1" parent="7X8SiKdpSlec0oVsGJHV-321">
          <mxGeometry x="-1" relative="1" as="geometry" />
        </mxCell>
        <mxCell id="7X8SiKdpSlec0oVsGJHV-323" value="1" style="text;html=1;align=center;verticalAlign=middle;resizable=0;points=[];autosize=1;" vertex="1" parent="1">
          <mxGeometry x="277" y="550" width="20" height="20" as="geometry" />
        </mxCell>
        <mxCell id="7X8SiKdpSlec0oVsGJHV-324" value="centroZonas" style="endArrow=block;endFill=1;html=1;edgeStyle=orthogonalEdgeStyle;align=left;verticalAlign=top;fontColor=#000000;entryX=0.458;entryY=1.051;entryDx=0;entryDy=0;entryPerimeter=0;exitX=1.004;exitY=0.041;exitDx=0;exitDy=0;exitPerimeter=0;" edge="1" parent="1" source="7X8SiKdpSlec0oVsGJHV-5" target="7X8SiKdpSlec0oVsGJHV-128">
          <mxGeometry x="-0.7234" y="23" relative="1" as="geometry">
            <mxPoint x="1780" y="640" as="sourcePoint" />
            <mxPoint x="1810" y="330" as="targetPoint" />
            <Array as="points">
              <mxPoint x="1773" y="713" />
            </Array>
            <mxPoint as="offset" />
          </mxGeometry>
        </mxCell>
        <mxCell id="7X8SiKdpSlec0oVsGJHV-325" value="1" style="edgeLabel;resizable=0;html=1;align=left;verticalAlign=bottom;" connectable="0" vertex="1" parent="7X8SiKdpSlec0oVsGJHV-324">
          <mxGeometry x="-1" relative="1" as="geometry" />
        </mxCell>
        <mxCell id="7X8SiKdpSlec0oVsGJHV-327" value="1" style="text;html=1;align=center;verticalAlign=middle;resizable=0;points=[];autosize=1;" vertex="1" parent="1">
          <mxGeometry x="1775" y="292" width="20" height="20" as="geometry" />
        </mxCell>
        <mxCell id="7X8SiKdpSlec0oVsGJHV-328" value="celular" style="endArrow=block;endFill=1;html=1;edgeStyle=orthogonalEdgeStyle;align=left;verticalAlign=top;fontColor=#000000;entryX=1;entryY=0.5;entryDx=0;entryDy=0;exitX=-0.01;exitY=0.023;exitDx=0;exitDy=0;exitPerimeter=0;" edge="1" parent="1" source="7X8SiKdpSlec0oVsGJHV-36" target="7X8SiKdpSlec0oVsGJHV-300">
          <mxGeometry x="0.2724" relative="1" as="geometry">
            <mxPoint x="1340" y="840" as="sourcePoint" />
            <mxPoint x="1170" y="900" as="targetPoint" />
            <Array as="points">
              <mxPoint x="1245" y="858" />
            </Array>
            <mxPoint as="offset" />
          </mxGeometry>
        </mxCell>
        <mxCell id="7X8SiKdpSlec0oVsGJHV-329" value="1" style="edgeLabel;resizable=0;html=1;align=left;verticalAlign=bottom;" connectable="0" vertex="1" parent="7X8SiKdpSlec0oVsGJHV-328">
          <mxGeometry x="-1" relative="1" as="geometry">
            <mxPoint x="-22.4" y="12.4" as="offset" />
          </mxGeometry>
        </mxCell>
        <mxCell id="7X8SiKdpSlec0oVsGJHV-330" value="1" style="text;html=1;align=center;verticalAlign=middle;resizable=0;points=[];autosize=1;" vertex="1" parent="1">
          <mxGeometry x="1130" y="830" width="20" height="20" as="geometry" />
        </mxCell>
        <mxCell id="7X8SiKdpSlec0oVsGJHV-331" value="notificador" style="endArrow=block;endFill=1;html=1;edgeStyle=orthogonalEdgeStyle;align=left;verticalAlign=top;fontColor=#000000;exitX=1.012;exitY=0.962;exitDx=0;exitDy=0;exitPerimeter=0;entryX=0;entryY=0.5;entryDx=0;entryDy=0;" edge="1" parent="1" source="7X8SiKdpSlec0oVsGJHV-8" target="7X8SiKdpSlec0oVsGJHV-30">
          <mxGeometry x="-0.3139" relative="1" as="geometry">
            <mxPoint x="1640" y="830" as="sourcePoint" />
            <mxPoint x="1800" y="830" as="targetPoint" />
            <mxPoint as="offset" />
          </mxGeometry>
        </mxCell>
        <mxCell id="7X8SiKdpSlec0oVsGJHV-332" value="1" style="edgeLabel;resizable=0;html=1;align=left;verticalAlign=bottom;" connectable="0" vertex="1" parent="7X8SiKdpSlec0oVsGJHV-331">
          <mxGeometry x="-1" relative="1" as="geometry" />
        </mxCell>
        <mxCell id="7X8SiKdpSlec0oVsGJHV-333" value="1" style="text;html=1;align=center;verticalAlign=middle;resizable=0;points=[];autosize=1;" vertex="1" parent="1">
          <mxGeometry x="1780" y="800" width="20" height="20" as="geometry" />
        </mxCell>
        <mxCell id="7X8SiKdpSlec0oVsGJHV-334" value="modo" style="endArrow=block;endFill=1;html=1;edgeStyle=orthogonalEdgeStyle;align=left;verticalAlign=top;fontColor=#000000;" edge="1" parent="1">
          <mxGeometry x="-0.3125" y="-10" relative="1" as="geometry">
            <mxPoint x="1635" y="1040" as="sourcePoint" />
            <mxPoint x="1795" y="1040" as="targetPoint" />
            <mxPoint as="offset" />
          </mxGeometry>
        </mxCell>
        <mxCell id="7X8SiKdpSlec0oVsGJHV-335" value="1" style="edgeLabel;resizable=0;html=1;align=left;verticalAlign=bottom;" connectable="0" vertex="1" parent="7X8SiKdpSlec0oVsGJHV-334">
          <mxGeometry x="-1" relative="1" as="geometry" />
        </mxCell>
        <mxCell id="7X8SiKdpSlec0oVsGJHV-336" value="1" style="edgeLabel;resizable=0;html=1;align=left;verticalAlign=bottom;" connectable="0" vertex="1" parent="1">
          <mxGeometry x="1770" y="1030" as="geometry" />
        </mxCell>
        <mxCell id="7X8SiKdpSlec0oVsGJHV-337" value="" style="endArrow=block;dashed=1;endFill=0;endSize=12;html=1;fontColor=#000000;entryX=0.445;entryY=1.214;entryDx=0;entryDy=0;entryPerimeter=0;exitX=0.5;exitY=0;exitDx=0;exitDy=0;" edge="1" parent="1" source="7X8SiKdpSlec0oVsGJHV-163" target="7X8SiKdpSlec0oVsGJHV-162">
          <mxGeometry width="160" relative="1" as="geometry">
            <mxPoint x="1560" y="1320" as="sourcePoint" />
            <mxPoint x="1720" y="1320" as="targetPoint" />
          </mxGeometry>
        </mxCell>
        <mxCell id="7X8SiKdpSlec0oVsGJHV-338" value="" style="endArrow=block;dashed=1;endFill=0;endSize=12;html=1;fontColor=#000000;entryX=0;entryY=0.5;entryDx=0;entryDy=0;exitX=0.5;exitY=0;exitDx=0;exitDy=0;" edge="1" parent="1" source="7X8SiKdpSlec0oVsGJHV-175" target="7X8SiKdpSlec0oVsGJHV-162">
          <mxGeometry width="160" relative="1" as="geometry">
            <mxPoint x="1500" y="1314.44" as="sourcePoint" />
            <mxPoint x="1551.8000000000002" y="1180.0040000000001" as="targetPoint" />
          </mxGeometry>
        </mxCell>
        <mxCell id="7X8SiKdpSlec0oVsGJHV-339" value="extends" style="text;html=1;align=center;verticalAlign=middle;resizable=0;points=[];autosize=1;" vertex="1" parent="1">
          <mxGeometry x="1885" y="1270" width="60" height="20" as="geometry" />
        </mxCell>
        <mxCell id="7X8SiKdpSlec0oVsGJHV-340" value="extends" style="text;html=1;align=center;verticalAlign=middle;resizable=0;points=[];autosize=1;" vertex="1" parent="1">
          <mxGeometry x="1530" y="1250" width="60" height="20" as="geometry" />
        </mxCell>
        <mxCell id="7X8SiKdpSlec0oVsGJHV-341" value="celular" style="endArrow=block;endFill=1;html=1;edgeStyle=orthogonalEdgeStyle;align=left;verticalAlign=top;fontColor=#000000;entryX=1;entryY=0.5;entryDx=0;entryDy=0;exitX=0.333;exitY=0;exitDx=0;exitDy=0;exitPerimeter=0;" edge="1" parent="1" source="7X8SiKdpSlec0oVsGJHV-175" target="7X8SiKdpSlec0oVsGJHV-302">
          <mxGeometry x="-0.7105" y="-20" relative="1" as="geometry">
            <mxPoint x="1390" y="1170" as="sourcePoint" />
            <mxPoint x="1550" y="1170" as="targetPoint" />
            <Array as="points">
              <mxPoint x="1370" y="1170" />
              <mxPoint x="1290" y="1170" />
              <mxPoint x="1290" y="909" />
            </Array>
            <mxPoint as="offset" />
          </mxGeometry>
        </mxCell>
        <mxCell id="7X8SiKdpSlec0oVsGJHV-342" value="1" style="edgeLabel;resizable=0;html=1;align=left;verticalAlign=bottom;" connectable="0" vertex="1" parent="7X8SiKdpSlec0oVsGJHV-341">
          <mxGeometry x="-1" relative="1" as="geometry" />
        </mxCell>
        <mxCell id="7X8SiKdpSlec0oVsGJHV-343" value="1" style="text;html=1;align=center;verticalAlign=middle;resizable=0;points=[];autosize=1;" vertex="1" parent="1">
          <mxGeometry x="1130" y="920" width="20" height="20" as="geometry" />
        </mxCell>
        <mxCell id="7X8SiKdpSlec0oVsGJHV-344" value="centroRegistros" style="endArrow=block;endFill=1;html=1;edgeStyle=orthogonalEdgeStyle;align=left;verticalAlign=top;fontColor=#000000;exitX=0;exitY=-0.231;exitDx=0;exitDy=0;exitPerimeter=0;entryX=0.134;entryY=1.17;entryDx=0;entryDy=0;entryPerimeter=0;" edge="1" parent="1" source="7X8SiKdpSlec0oVsGJHV-178" target="7X8SiKdpSlec0oVsGJHV-118">
          <mxGeometry x="-0.3276" y="-10" relative="1" as="geometry">
            <mxPoint x="965" y="1380" as="sourcePoint" />
            <mxPoint x="1125" y="1380" as="targetPoint" />
            <Array as="points">
              <mxPoint x="20" y="1430" />
              <mxPoint x="20" y="548" />
            </Array>
            <mxPoint as="offset" />
          </mxGeometry>
        </mxCell>
        <mxCell id="7X8SiKdpSlec0oVsGJHV-345" value="1" style="edgeLabel;resizable=0;html=1;align=left;verticalAlign=bottom;" connectable="0" vertex="1" parent="7X8SiKdpSlec0oVsGJHV-344">
          <mxGeometry x="-1" relative="1" as="geometry">
            <mxPoint x="-25" y="-6.99" as="offset" />
          </mxGeometry>
        </mxCell>
        <mxCell id="7X8SiKdpSlec0oVsGJHV-347" value="1" style="text;html=1;align=center;verticalAlign=middle;resizable=0;points=[];autosize=1;" vertex="1" parent="1">
          <mxGeometry x="50" y="555" width="20" height="20" as="geometry" />
        </mxCell>
      </root>
    </mxGraphModel>
  </diagram>
</mxfile>
